<svg width="1008" height="375" fill="none" xmlns="http://www.w3.org/2000/svg"><rect x="1.36" y="111.09" width="95" height="59" rx="5.5" stroke="currentColor"/><rect x="1.36" y="179.09" width="113" height="59" rx="5.5" stroke="currentColor"/><rect x="1.36" y="247.09" width="148" height="59" rx="5.5" stroke="currentColor"/><rect x="1.36" y="315.09" width="61" height="59" rx="5.5" stroke="currentColor"/><rect x="71.36" y="315.09" width="61" height="59" rx="5.5" stroke="currentColor"/><rect x="281.36" y="43.09" width="61" height="59" rx="5.5" stroke="currentColor"/><rect x="315.36" y="111.09" width="61" height="59" rx="5.5" stroke="currentColor"/><rect x="333.36" y="179.09" width="61" height="59" rx="5.5" stroke="currentColor"/><rect x="298.36" y="247.09" width="61" height="59" rx="5.5" stroke="currentColor"/><rect x="141.36" y="43.09" width="61" height="59" rx="5.5" stroke="currentColor"/><rect x="175.36" y="111.09" width="61" height="59" rx="5.5" stroke="currentColor"/><rect x="193.36" y="179.09" width="61" height="59" rx="5.5" stroke="currentColor"/><rect x="158.36" y="247.09" width="61" height="59" rx="5.5" stroke="currentColor"/><rect x="421.36" y="43.09" width="61" height="59" rx="5.5" stroke="currentColor"/><rect x="455.36" y="111.09" width="61" height="59" rx="5.5" stroke="currentColor"/><rect x="473.36" y="179.09" width="61" height="59" rx="5.5" stroke="currentColor"/><rect x="438.36" y="247.09" width="61" height="59" rx="5.5" stroke="currentColor"/><rect x="701.36" y="43.09" width="61" height="59" rx="5.5" stroke="currentColor"/><rect x="735.36" y="111.09" width="61" height="59" rx="5.5" stroke="currentColor"/><rect x="753.36" y="179.09" width="61" height="59" rx="5.5" stroke="currentColor"/><rect x="718.36" y="247.09" width="61" height="59" rx="5.5" stroke="currentColor"/><rect x="71.36" y="43.09" width="61" height="59" rx="5.5" stroke="currentColor"/><rect x="105.36" y="111.09" width="61" height="59" rx="5.5" stroke="currentColor"/><rect x="123.36" y="179.09" width="61" height="59" rx="5.5" stroke="currentColor"/><rect x="141.36" y="315.09" width="61" height="59" rx="5.5" stroke="currentColor"/><rect x="211.36" y="315.09" width="78" height="59" rx="5.5" stroke="currentColor"/><rect x="351.36" y="43.09" width="61" height="59" rx="5.5" stroke="currentColor"/><rect x="385.36" y="111.09" width="61" height="59" rx="5.5" stroke="currentColor"/><rect x="403.36" y="179.09" width="61" height="59" rx="5.5" stroke="currentColor"/><rect x="368.36" y="247.09" width="61" height="59" rx="5.5" stroke="currentColor"/><rect x="631.36" y="43.09" width="61" height="59" rx="5.5" stroke="currentColor"/><rect x="665.36" y="111.09" width="61" height="59" rx="5.5" stroke="currentColor"/><rect x="683.36" y="179.09" width="61" height="59" rx="5.5" stroke="currentColor"/><rect x="1.36" y="43.09" width="61" height="59" rx="5.5" stroke="currentColor"/><rect x="648.36" y="247.09" width="61" height="59" rx="5.5" stroke="currentColor"/><rect x="211.36" y="43.09" width="61" height="59" rx="5.5" stroke="currentColor"/><rect x="245.36" y="111.09" width="61" height="59" rx="5.5" stroke="currentColor"/><rect x="263.36" y="179.09" width="61" height="59" rx="5.5" stroke="currentColor"/><rect x="228.36" y="247.09" width="61" height="59" rx="5.5" stroke="currentColor"/><rect x="561.36" y="43.09" width="61" height="59" rx="5.5" stroke="currentColor"/><rect x="595.36" y="111.09" width="61" height="59" rx="5.5" stroke="currentColor"/><rect x="613.36" y="179.09" width="61" height="59" rx="5.5" stroke="currentColor"/><rect x="578.36" y="247.09" width="61" height="59" rx="5.5" stroke="currentColor"/><rect x="841.36" y="43.09" width="61" height="59" rx="5.5" stroke="currentColor"/><rect x="875.36" y="111.09" width="61" height="59" rx="5.5" stroke="currentColor"/><rect x="875.36" y="315.09" width="61" height="59" rx="5.5" stroke="currentColor"/><path d="M935.86 345.6h-60" stroke="currentColor"/><rect x="893.36" y="179.09" width="114" height="59" rx="5.5" stroke="currentColor"/><rect x="858.36" y="247.09" width="149" height="59" rx="5.5" stroke="currentColor"/><rect x="945.36" y="111.09" width="62" height="59" rx="5.5" stroke="currentColor"/><rect x="945.36" y="346.09" width="62" height="28" rx="5.5" stroke="currentColor"/><rect x="911.36" y="43.09" width="96" height="59" rx="5.5" stroke="currentColor"/><rect x="491.36" y="43.09" width="61" height="59" rx="5.5" stroke="currentColor"/><rect x="525.36" y="111.09" width="61" height="59" rx="5.5" stroke="currentColor"/><rect x="543.36" y="179.09" width="61" height="59" rx="5.5" stroke="currentColor"/><rect x="508.36" y="247.09" width="61" height="59" rx="5.5" stroke="currentColor"/><rect x="771.36" y="43.09" width="61" height="59" rx="5.5" stroke="currentColor"/><rect x="805.36" y="111.09" width="61" height="59" rx="5.5" stroke="currentColor"/><rect x="805.36" y="346.09" width="61" height="28" rx="5.5" stroke="currentColor"/><rect x="823.36" y="179.09" width="61" height="59" rx="5.5" stroke="currentColor"/><rect x="788.36" y="247.09" width="61" height="59" rx="5.5" stroke="currentColor"/><rect x="735.36" y="315.09" width="61" height="59" rx="5.5" stroke="currentColor"/><rect x="648.36" y="315.09" width="78" height="59" rx="5.5" stroke="currentColor"/><rect x="298.36" y="315.09" width="341" height="59" rx="5.5" stroke="currentColor"/><rect x="1.36" y="1.09" width="63" height="33" rx="5.5" stroke="currentColor"/><rect x="73.76" y="1.09" width="63" height="33" rx="5.5" stroke="currentColor"/><rect x="146.16" y="1.09" width="63" height="33" rx="5.5" stroke="currentColor"/><rect x="218.56" y="1.09" width="63" height="33" rx="5.5" stroke="currentColor"/><rect x="290.96" y="1.09" width="63" height="33" rx="5.5" stroke="currentColor"/><rect x="363.36" y="1.09" width="63" height="33" rx="5.5" stroke="currentColor"/><rect x="435.76" y="1.09" width="63" height="33" rx="5.5" stroke="currentColor"/><rect x="508.16" y="1.09" width="63" height="33" rx="5.5" stroke="currentColor"/><rect x="580.56" y="1.09" width="63" height="33" rx="5.5" stroke="currentColor"/><rect x="652.96" y="1.09" width="63" height="33" rx="5.5" stroke="currentColor"/><rect x="725.36" y="1.09" width="63" height="33" rx="5.5" stroke="currentColor"/><rect x="797.76" y="1.09" width="63" height="33" rx="5.5" stroke="currentColor"/><rect x="870.16" y="1.09" width="63" height="33" rx="5.5" stroke="currentColor"/><rect x="942.36" y="1.09" width="65" height="33" rx="5.5" stroke="currentColor"/><text fill="currentColor" font-size="14"><tspan x="11.86" y="158.07">tab</tspan></text><text fill="currentColor" font-size="14"><tspan x="11.86" y="226.07">caps lock</tspan></text><circle cx="14.36" cy="193.09" r="2.5" fill="currentColor"/><text fill="currentColor" font-size="14"><tspan x="11.86" y="294.07">shift</tspan></text><text fill="currentColor" font-size="14"><tspan x="11.86" y="362.07">fn</tspan></text><text fill="currentColor" font-size="14"><tspan x="80.52" y="362.07">control</tspan></text><text fill="currentColor" font-size="14"><tspan x="657.86" y="362.07">command</tspan></text><text fill="currentColor" font-size="14"><tspan x="745.86" y="362.07">option</tspan></text><path d="M909.86 332.6h-7l3.5-8 3.5 8zM901.86 356.6h7l-3.5 8-3.5-8zM839.86 356.6v7l-8-3.5 8-3.5zM972.86 363.6v-7l8 3.5-8 3.5z" fill="currentColor"/><text fill="currentColor" font-size="14"><tspan x="154.4" y="362.07">option</tspan></text><text fill="currentColor" font-size="14"><tspan x="219.29" y="362.07">command</tspan></text><text fill="currentColor" font-size="14"><tspan x="958.57" y="90.07">delete</tspan></text><text fill="currentColor" font-size="14"><tspan x="959.3" y="226.07">return</tspan></text><text fill="currentColor" font-size="14"><tspan x="969.23" y="294.07">shift</tspan></text><path d="M661.73 330.85V333h-.92c-1.03 0-1.87.8-1.87 1.85a1.88 1.88 0 103.74 0v-.92h2.13v.92a1.88 1.88 0 103.75 0c0-1.04-.84-1.85-1.88-1.85h-.93v-2.16h.93c1.04 0 1.88-.81 1.88-1.85a1.88 1.88 0 10-3.75 0v.92h-2.13V329a1.88 1.88 0 10-3.74 0c0 1.04.84 1.85 1.87 1.85h.92zm-.91-.92a.93.93 0 010-1.86c.5 0 .91.42.91.94v.92h-.91zm5.86 0h-.93V329c0-.52.43-.94.93-.94a.93.93 0 010 1.86zm-4 3.09v-2.18h2.13v2.18h-2.13zm-1.86.9h.91v.93c0 .51-.41.93-.92.93a.93.93 0 010-1.86zm5.86 0a.93.93 0 010 1.86.94.94 0 01-.93-.93v-.93h.93zM749.84 327.6h-2.4a.57.57 0 00-.58.55c0 .32.25.56.58.56h2.14c.17 0 .28.07.36.23l3.24 7.26c.21.47.54.68 1.05.68h2.4c.33 0 .59-.25.59-.56 0-.3-.26-.55-.58-.55h-2.13c-.2 0-.31-.07-.39-.23l-3.22-7.25c-.2-.44-.58-.7-1.06-.7zm6.8 0h-3.11a.55.55 0 00-.58.55c0 .31.25.55.58.55h3.1c.34 0 .59-.24.59-.55 0-.32-.25-.56-.58-.56zM185.43 327.6h-2.4a.57.57 0 00-.58.55c0 .32.26.56.58.56h2.14c.17 0 .28.07.36.23l3.24 7.26c.21.47.54.68 1.05.68h2.4c.33 0 .59-.25.59-.56 0-.3-.26-.55-.58-.55h-2.13c-.2 0-.31-.07-.39-.23l-3.22-7.25c-.2-.44-.58-.7-1.06-.7zm6.8 0h-3.11a.55.55 0 00-.58.55c0 .31.25.55.58.55h3.1c.34 0 .59-.24.59-.55 0-.32-.25-.56-.58-.56zM113.66 331.29c-.11.1-.17.25-.17.4 0 .33.25.58.57.58.16 0 .3-.06.41-.17l3.56-3.57 3.54 3.57c.11.1.26.17.41.17.33 0 .58-.25.58-.58 0-.15-.06-.3-.17-.4l-3.95-3.97a.57.57 0 00-.84 0l-3.94 3.97zM272.73 330.85V333h-.92c-1.03 0-1.87.8-1.87 1.85a1.88 1.88 0 103.75 0v-.92h2.12v.92a1.88 1.88 0 103.75 0c0-1.04-.84-1.85-1.88-1.85h-.93v-2.16h.93c1.04 0 1.88-.81 1.88-1.85a1.88 1.88 0 10-3.75 0v.92h-2.13V329a1.88 1.88 0 10-3.74 0c0 1.04.84 1.85 1.87 1.85h.92zm-.91-.92a.93.93 0 010-1.86c.5 0 .91.42.91.94v.92h-.91zm5.86 0h-.93V329c0-.52.43-.94.93-.94a.93.93 0 010 1.86zm-4 3.09v-2.18h2.13v2.18h-2.13zm-1.86.9h.91v.93c0 .51-.41.93-.92.93a.93.93 0 010-1.86zm5.86 0a.93.93 0 010 1.86.94.94 0 01-.93-.93v-.93h.93z" fill="currentColor"/><text fill="currentColor" font-size="18"><tspan x="100.08" y="64.49">!</tspan></text><text fill="currentColor" font-size="18"><tspan x="165.02" y="64.49">@</tspan></text><text fill="currentColor" font-size="18"><tspan x="237.13" y="64.49">#</tspan></text><text fill="currentColor" font-size="18"><tspan x="307.36" y="64.49">$</tspan></text><text fill="currentColor" font-size="18"><tspan x="377.2" y="64.49">%</tspan></text><text fill="currentColor" font-size="18"><tspan x="449.02" y="64.49">^</tspan></text><text fill="currentColor" font-size="18"><tspan x="516.14" y="64.49">&amp;</tspan></text><text fill="currentColor" font-size="18"><tspan x="588.27" y="64.49">*</tspan></text><text opacity=".9" fill="currentColor" font-size="18"><tspan x="658.91" y="64.49">(</tspan></text><text opacity=".9" fill="currentColor" font-size="18"><tspan x="728.91" y="64.49">)</tspan></text><text opacity=".9" fill="currentColor" font-size="18"><tspan x="797.36" y="64.49">‒</tspan></text><text opacity=".9" fill="currentColor" font-size="18"><tspan x="832.91" y="132.49">{</tspan></text><text opacity=".9" fill="currentColor" font-size="18"><tspan x="850.28" y="200.49">”</tspan></text><text opacity=".9" fill="currentColor" font-size="18"><tspan x="782.04" y="200.49">:</tspan></text><text opacity=".9" fill="currentColor" font-size="18"><tspan x="674.36" y="268.49">&lt;</tspan></text><text opacity=".9" fill="currentColor" font-size="18"><tspan x="744.36" y="268.49">&gt;</tspan></text><text opacity=".9" fill="currentColor" font-size="18"><tspan x="815.19" y="268.49">?</tspan></text><text opacity=".9" fill="currentColor" font-size="18"><tspan x="902.91" y="132.49">}</tspan></text><text opacity=".9" fill="currentColor" font-size="18"><tspan x="973.91" y="132.49">|</tspan></text><text opacity=".9" fill="currentColor" font-size="18"><tspan x="832.91" y="157.49">[</tspan></text><text opacity=".9" fill="currentColor" font-size="18"><tspan x="852.26" y="223.49">‘</tspan></text><text opacity=".9" fill="currentColor" font-size="18"><tspan x="782.03" y="225.49">;</tspan></text><text opacity=".9" fill="currentColor" font-size="18"><tspan x="676.97" y="291.49">,</tspan></text><text opacity=".9" fill="currentColor" font-size="18"><tspan x="747.24" y="291.49">.</tspan></text><text opacity=".9" fill="currentColor" font-size="18"><tspan x="815.91" y="291.49">/</tspan></text><text opacity=".9" fill="currentColor" font-size="18"><tspan x="902.91" y="157.49">]</tspan></text><text opacity=".9" fill="currentColor" font-size="18"><tspan x="973.91" y="157.49">\</tspan></text><text opacity=".9" fill="currentColor" font-size="18"><tspan x="867.36" y="64.49">+</tspan></text><text fill="currentColor" font-size="18"><tspan x="26.96" y="64.49">~</tspan></text><text fill="currentColor" font-size="20"><tspan x="27.24" y="89.7">`</tspan></text><text fill="currentColor" font-size="20"><tspan x="97.92" y="89.7">1</tspan></text><text fill="currentColor" font-size="22"><tspan x="128.8" y="148.41">Q</tspan></text><text fill="currentColor" font-size="22"><tspan x="196.88" y="148.41">W</tspan></text><text fill="currentColor" font-size="22"><tspan x="269.96" y="148.41">E</tspan></text><text fill="currentColor" font-size="22"><tspan x="339.33" y="148.41">R</tspan></text><text fill="currentColor" font-size="22"><tspan x="410.25" y="148.41">T</tspan></text><text fill="currentColor" font-size="22"><tspan x="480.01" y="148.41">Y</tspan></text><text fill="currentColor" font-size="22"><tspan x="549.2" y="148.41">U</tspan></text><text fill="currentColor" font-size="22"><tspan x="623.16" y="148.41">I</tspan></text><text fill="currentColor" font-size="22"><tspan x="689.3" y="148.41">O</tspan></text><text fill="currentColor" font-size="22"><tspan x="637.49" y="216.41">K</tspan></text><text fill="currentColor" font-size="22"><tspan x="496.53" y="216.41">H</tspan></text><text fill="currentColor" font-size="22"><tspan x="358.32" y="216.41">F</tspan></text><text fill="currentColor" font-size="22"><tspan x="217.65" y="216.41">S</tspan></text><text fill="currentColor" font-size="22"><tspan x="252.82" y="284.42">X</tspan></text><text fill="currentColor" font-size="22"><tspan x="392.42" y="284.42">V</tspan></text><text fill="currentColor" font-size="22"><tspan x="531.54" y="284.42">N</tspan></text><text fill="currentColor" font-size="22"><tspan x="600.34" y="284.42">M</tspan></text><text fill="currentColor" font-size="22"><tspan x="147.41" y="216.41">A</tspan></text><text fill="currentColor" font-size="22"><tspan x="182.7" y="284.42">Z</tspan></text><text fill="currentColor" font-size="22"><tspan x="322.15" y="284.42">C</tspan></text><text fill="currentColor" font-size="22"><tspan x="462.29" y="284.42">B</tspan></text><text fill="currentColor" font-size="22"><tspan x="760.18" y="148.41">P</tspan></text><text fill="currentColor" font-size="22"><tspan x="708.54" y="216.41">L</tspan></text><text fill="currentColor" font-size="22"><tspan x="568.67" y="216.41">J</tspan></text><text fill="currentColor" font-size="22"><tspan x="427.01" y="216.41">G</tspan></text><text fill="currentColor" font-size="22"><tspan x="286.92" y="216.41">D</tspan></text><text fill="currentColor" font-size="20"><tspan x="166.94" y="89.7">2</tspan></text><text fill="currentColor" font-size="20"><tspan x="236.35" y="89.7">3</tspan></text><text fill="currentColor" font-size="20"><tspan x="306.17" y="89.7">4</tspan></text><text fill="currentColor" font-size="20"><tspan x="377.06" y="89.7">5</tspan></text><text fill="currentColor" font-size="20"><tspan x="446.32" y="89.7">6</tspan></text><text fill="currentColor" font-size="20"><tspan x="517.09" y="89.7">7</tspan></text><text fill="currentColor" font-size="20"><tspan x="586.11" y="89.7">8</tspan></text><text opacity=".9" fill="currentColor" font-size="20"><tspan x="656.32" y="89.7">9</tspan></text><text opacity=".9" fill="currentColor" font-size="20"><tspan x="726.21" y="89.7">0</tspan></text><text opacity=".9" fill="currentColor" font-size="20"><tspan x="798.02" y="89.7">-</tspan></text><text opacity=".9" fill="currentColor" font-size="20"><tspan x="866.3" y="89.7">=</tspan></text><text fill="currentColor" font-size="9"><tspan x="121.79" y="26.29">F1</tspan></text><text fill="currentColor" font-size="9"><tspan x="265.64" y="26.29">F3</tspan></text><text fill="currentColor" font-size="9"><tspan x="193.1" y="26.29">F2</tspan></text><text fill="currentColor" font-size="9"><tspan x="337.25" y="26.29">F4</tspan></text><text fill="currentColor" font-size="9"><tspan x="409.65" y="26.29">F5</tspan></text><text fill="currentColor" font-size="9"><tspan x="481.53" y="26.29">F6</tspan></text><text fill="currentColor" font-size="9"><tspan x="555.41" y="26.29">F7</tspan></text><text fill="currentColor" font-size="9"><tspan x="626.62" y="26.29">F8</tspan></text><text fill="currentColor" font-size="9"><tspan x="699.44" y="26.29">F9</tspan></text><text fill="currentColor" font-size="9"><tspan x="768.43" y="26.29">F10</tspan></text><text fill="currentColor" font-size="9"><tspan x="841.61" y="26.29">F11</tspan></text><text fill="currentColor" font-size="9"><tspan x="913.92" y="26.29">F12</tspan></text><path fill-rule="evenodd" clip-rule="evenodd" d="M104.76 12.1a.5.5 0 111 0 .5.5 0 01-1 0zm.5 7.5a2.5 2.5 0 100-5 2.5 2.5 0 000 5zm0 1a3.5 3.5 0 100-7 3.5 3.5 0 000 7zm0 1a.5.5 0 100 1 .5.5 0 000-1zm3.18-8.4a.5.5 0 11.7.71.5.5 0 01-.7-.7zm-6.37 7.08a.5.5 0 10-.7.7.5.5 0 00.7-.7zm8.19-3.69a.5.5 0 110 1 .5.5 0 010-1zm-9.5.5a.5.5 0 10-1 0 .5.5 0 001 0zm8.38 3.19a.5.5 0 11-.7.7.5.5 0 01.7-.7zm-7.07-6.37a.5.5 0 10-.7-.7.5.5 0 00.7.7zM177.16 10.1a.5.5 0 111 0v2a.5.5 0 01-1 0v-2zm.5 9.5a2.5 2.5 0 100-5 2.5 2.5 0 000 5zm0 1a3.5 3.5 0 100-7 3.5 3.5 0 000 7zm0 1a.5.5 0 00-.5.5v2a.5.5 0 101 0v-2a.5.5 0 00-.5-.5zm7-5a.5.5 0 010 1h-2a.5.5 0 110-1h2zm-11.5.5a.5.5 0 00-.5-.5h-2a.5.5 0 100 1h2a.5.5 0 00.5-.5zm9.1-5.3a.5.5 0 11.7.7l-1.42 1.41a.5.5 0 11-.7-.7l1.41-1.42zm-7.79 8.48a.5.5 0 00-.7 0l-1.42 1.41a.5.5 0 00.7.7l1.42-1.4a.5.5 0 000-.71zm8.49 1.41a.5.5 0 01-.7.7l-1.42-1.4a.5.5 0 11.7-.7l1.42 1.4zm-8.49-7.78a.5.5 0 000-.7l-1.41-1.42a.5.5 0 00-.7.7l1.4 1.42c.2.2.52.2.71 0z" fill="currentColor"/><path d="M242.06 12.1h7c.27 0 .5.22.5.5v3a.5.5 0 01-.5.5h-7a.5.5 0 01-.5-.5v-3c0-.28.22-.5.5-.5zm2 7h6c.27 0 .5.22.5.5v2a.5.5 0 01-.5.5h-6a.5.5 0 01-.5-.5v-2c0-.28.22-.5.5-.5zm10-7h4c.27 0 .5.22.5.5v8a.5.5 0 01-.5.5h-4a.5.5 0 01-.5-.5v-8c0-.28.22-.5.5-.5zM313.96 12.1h3c.27 0 .5.22.5.5v3a.5.5 0 01-.5.5h-3a.5.5 0 01-.5-.5v-3c0-.28.22-.5.5-.5zm7 0h3c.27 0 .5.22.5.5v3a.5.5 0 01-.5.5h-3a.5.5 0 01-.5-.5v-3c0-.28.22-.5.5-.5zm7 0h3c.27 0 .5.22.5.5v3a.5.5 0 01-.5.5h-3a.5.5 0 01-.5-.5v-3c0-.28.22-.5.5-.5zm-14 6h3c.27 0 .5.22.5.5v3a.5.5 0 01-.5.5h-3a.5.5 0 01-.5-.5v-3c0-.28.22-.5.5-.5zm7 0h3c.27 0 .5.22.5.5v3a.5.5 0 01-.5.5h-3a.5.5 0 01-.5-.5v-3c0-.28.22-.5.5-.5zm7 0h3c.27 0 .5.22.5.5v3a.5.5 0 01-.5.5h-3a.5.5 0 01-.5-.5v-3c0-.28.22-.5.5-.5zM677.36 20.99v-6.4a.5.5 0 01.75-.43l5.11 2.99a.5.5 0 01.02.84l-5.1 3.41a.5.5 0 01-.78-.41zm8 0v-6.4a.5.5 0 01.75-.43l5.11 2.99a.5.5 0 01.02.84l-5.1 3.41a.5.5 0 01-.78-.41zM544.36 14.2v6.4a.5.5 0 01-.76.42l-5.1-2.98a.5.5 0 01-.03-.85l5.1-3.4a.5.5 0 01.79.41zm-8 0v6.4a.5.5 0 01-.76.42l-5.1-2.98a.5.5 0 01-.03-.85l5.1-3.4a.5.5 0 01.79.41zM604.36 20.99v-6.4a.5.5 0 01.75-.43l5.11 2.99a.5.5 0 01.02.84l-5.1 3.41a.5.5 0 01-.78-.41z" stroke="currentColor"/><rect x="613.86" y="13.85" width="1" height="8" rx=".5" fill="currentColor"/><rect x="616.86" y="13.85" width="1" height="8" rx=".5" fill="currentColor"/><path d="M902.63 15.04c.48.24 1.23 1.12 1.23 2.55h1c0-1.76-.92-3.01-1.78-3.44l-.45.9zm1.23 2.55c0 1.44-.75 2.32-1.23 2.56l.45.9c.86-.44 1.78-1.7 1.78-3.46h-1zm.73-4.57a5.61 5.61 0 012.27 4.57h1a6.6 6.6 0 00-2.74-5.42l-.53.85zm2.27 4.57c0 2.47-1.5 4.1-2.27 4.58l.53.85a6.6 6.6 0 002.74-5.43h-1zm.17-6.62a9.14 9.14 0 012.83 6.62h1c0-3.92-2.22-6.53-3.18-7.37l-.65.75zm2.83 6.62c0 3.55-2.01 5.91-2.83 6.63l.65.75c.96-.84 3.18-3.45 3.18-7.38h-1z" fill="currentColor"/><mask id="a" fill="#fff"><path d="M893.86 15.18h3l2.29-2.3a1 1 0 011.7.72v8.17a1 1 0 01-1.7.7l-2.3-2.29h-3a1 1 0 01-1-1v-3a1 1 0 011-1z"/></mask><path d="M896.86 15.18v1h.41l.3-.3-.71-.7zm0 5l.7-.7-.29-.3h-.41v1zm2.29 2.3l-.7.7.7-.7zm0-9.6l.7.72-.7-.71zm-2.3 1.3h-3v2h3v-2zm-5 2v3h2v-3h-2zm2 5h3v-2h-3v2zm2.3-.3l2.3 2.3 1.4-1.41-2.29-2.3-1.41 1.42zm5.7.89V13.6h-2v8.17h2zm-3.4-9.59l-2.3 2.3 1.41 1.4 2.3-2.28-1.42-1.42zm3.4 1.42a2 2 0 00-3.4-1.42l1.4 1.42h2zm-3.4 9.58a2 2 0 003.4-1.41h-2l-1.4 1.41zm-6.6-4c0 1.1.9 2 2 2v-2h-2zm2-5a2 2 0 00-2 2h2v-2z" fill="currentColor" mask="url(#a)"/><path d="M832.63 15.04c.48.24 1.23 1.12 1.23 2.55h1c0-1.76-.92-3.01-1.78-3.44l-.45.9zm1.23 2.55c0 1.44-.75 2.32-1.23 2.56l.45.9c.86-.44 1.78-1.7 1.78-3.46h-1z" fill="currentColor"/><mask id="b" fill="#fff"><path d="M823.86 15.18h3l2.29-2.3a1 1 0 011.7.72v8.17a1 1 0 01-1.7.7l-2.3-2.29h-3a1 1 0 01-1-1v-3a1 1 0 011-1z"/></mask><path d="M826.86 15.18v1h.41l.3-.3-.71-.7zm0 5l.7-.7-.29-.3h-.41v1zm2.29 2.3l-.7.7.7-.7zm0-9.6l.7.72-.7-.71zm-2.3 1.3h-3v2h3v-2zm-5 2v3h2v-3h-2zm2 5h3v-2h-3v2zm2.3-.3l2.3 2.3 1.4-1.41-2.29-2.3-1.41 1.42zm5.7.89V13.6h-2v8.17h2zm-3.4-9.59l-2.3 2.3 1.41 1.4 2.3-2.28-1.42-1.42zm3.4 1.42a2 2 0 00-3.4-1.42l1.4 1.42h2zm-3.4 9.58a2 2 0 003.4-1.41h-2l-1.4 1.41zm-6.6-4c0 1.1.9 2 2 2v-2h-2zm2-5a2 2 0 00-2 2h2v-2z" fill="currentColor" mask="url(#b)"/><mask id="c" fill="#fff"><path d="M752.86 15.18h3l2.29-2.3a1 1 0 011.7.72v8.17a1 1 0 01-1.7.7l-2.3-2.29h-3a1 1 0 01-1-1v-3a1 1 0 011-1z"/></mask><path d="M755.86 15.18v1h.41l.3-.3-.71-.7zm0 5l.7-.7-.29-.3h-.41v1zm2.29 2.3l-.7.7.7-.7zm0-9.6l.7.72-.7-.71zm-2.3 1.3h-3v2h3v-2zm-5 2v3h2v-3h-2zm2 5h3v-2h-3v2zm2.3-.3l2.3 2.3 1.4-1.41-2.29-2.3-1.41 1.42zm5.7.89V13.6h-2v8.17h2zm-3.4-9.59l-2.3 2.3 1.41 1.4 2.3-2.28-1.42-1.42zm3.4 1.42a2 2 0 00-3.4-1.42l1.4 1.42h2zm-3.4 9.58a2 2 0 003.4-1.41h-2l-1.4 1.41zm-6.6-4c0 1.1.9 2 2 2v-2h-2zm2-5a2 2 0 00-2 2h2v-2z" fill="currentColor" mask="url(#c)"/><path stroke="currentColor" stroke-linecap="round" stroke-linejoin="round" d="M464.87 21.72h4.26M467.5 14.09v1.82M473.21 16.48l-1.28 1.28M461.08 15.98l1.28 1.28M458.56 21.72h1.82M474.14 21.72h1.81M393.09 22.21h3.45M395.31 16.09v1.03M399.89 18.32l-.72.72M390.1 17.62l.72.72M388.3 22.21h1.02M400.39 22.21h1.03"/><text fill="currentColor" font-size="14"><tspan x="21.86" y="22.07">esc</tspan></text><path fill-rule="evenodd" clip-rule="evenodd" d="M977.64 14a4.53 4.53 0 11-5.8 0l-.65-.77a5.53 5.53 0 107.09 0l-.64.77z" fill="currentColor"/><path fill="currentColor" d="M974.06 11.27h1v6.22h-1z"/></svg>