<svg xmlns="http://www.w3.org/2000/svg" width="1008" height="375" fill="none" viewBox="0 0 1008 375">
  <defs/>
  <rect width="95" height="59" x="1.356" y="110.528" rx="5.5"/>
  <rect width="113" height="59" x="1.356" y="178.528" rx="5.5"/>
  <rect width="148" height="59" x="1.356" y="246.528" rx="5.5"/>
  <rect width="61" height="59" x="1.356" y="314.528" rx="5.5"/>
  <rect width="61" height="59" x="71.356" y="314.528" rx="5.5"/>
  <rect width="61" height="59" x="281.356" y="42.528" rx="5.5"/>
  <rect width="61" height="59" x="315.356" y="110.528" rx="5.5"/>
  <rect width="61" height="59" x="333.356" y="178.528" rx="5.5"/>
  <rect width="61" height="59" x="298.356" y="246.528" rx="5.5"/>
  <rect width="61" height="59" x="141.356" y="42.528" rx="5.5"/>
  <rect width="61" height="59" x="175.356" y="110.528" rx="5.5"/>
  <rect width="61" height="59" x="193.356" y="178.528" rx="5.5"/>
  <rect width="61" height="59" x="158.356" y="246.528" rx="5.5"/>
  <rect width="61" height="59" x="421.356" y="42.528" rx="5.5"/>
  <rect width="61" height="59" x="455.356" y="110.528" rx="5.5"/>
  <rect width="61" height="59" x="473.356" y="178.528" rx="5.5"/>
  <rect width="61" height="59" x="438.356" y="246.528" rx="5.5"/>
  <rect width="61" height="59" x="701.356" y="42.528" rx="5.5"/>
  <rect width="61" height="59" x="735.356" y="110.528" rx="5.5"/>
  <rect width="61" height="59" x="753.356" y="178.528" rx="5.5"/>
  <rect width="61" height="59" x="718.356" y="246.528" rx="5.5"/>
  <rect width="61" height="59" x="71.356" y="42.528" rx="5.5"/>
  <rect width="61" height="59" x="105.356" y="110.528" rx="5.5"/>
  <rect width="61" height="59" x="123.356" y="178.528" rx="5.5"/>
  <rect width="61" height="59" x="141.356" y="314.528" rx="5.5"/>
  <rect width="78" height="59" x="211.356" y="314.528" rx="5.5"/>
  <rect width="61" height="59" x="351.356" y="42.528" rx="5.5"/>
  <rect width="61" height="59" x="385.356" y="110.528" rx="5.5"/>
  <rect width="61" height="59" x="403.356" y="178.528" rx="5.5"/>
  <rect width="61" height="59" x="368.356" y="246.528" rx="5.5"/>
  <rect width="61" height="59" x="631.356" y="42.528" rx="5.5"/>
  <rect width="61" height="59" x="665.356" y="110.528" rx="5.5"/>
  <rect width="61" height="59" x="683.356" y="178.528" rx="5.5"/>
  <rect width="61" height="59" x="1.356" y="42.528" rx="5.5"/>
  <rect width="61" height="59" x="648.356" y="246.528" rx="5.5"/>
  <rect width="61" height="59" x="211.356" y="42.528" rx="5.5"/>
  <rect width="61" height="59" x="245.356" y="110.528" rx="5.5"/>
  <rect width="61" height="59" x="263.356" y="178.528" rx="5.5"/>
  <rect width="61" height="59" x="228.356" y="246.528" rx="5.5"/>
  <rect width="61" height="59" x="561.356" y="42.528" rx="5.5"/>
  <rect width="61" height="59" x="595.356" y="110.528" rx="5.5"/>
  <rect width="61" height="59" x="613.356" y="178.528" rx="5.5"/>
  <rect width="61" height="59" x="578.356" y="246.528" rx="5.5"/>
  <rect width="61" height="59" x="841.356" y="42.528" rx="5.5"/>
  <rect width="61" height="59" x="875.356" y="110.528" rx="5.5"/>
  <rect width="61" height="59" x="875.356" y="314.528" rx="5.5"/>
  <path d="M935.856 345.028h-60"/>
  <rect width="114" height="59" x="893.356" y="178.528" rx="5.5"/>
  <rect width="149" height="59" x="858.356" y="246.528" rx="5.5"/>
  <rect width="62" height="59" x="945.356" y="110.528" rx="5.5"/>
  <rect width="62" height="28" x="945.356" y="345.528" rx="5.5"/>
  <rect width="96" height="59" x="911.356" y="42.528" rx="5.5"/>
  <rect width="61" height="59" x="491.356" y="42.528" rx="5.5"/>
  <rect width="61" height="59" x="525.356" y="110.528" rx="5.5"/>
  <rect width="61" height="59" x="543.356" y="178.528" rx="5.5"/>
  <rect width="61" height="59" x="508.356" y="246.528" rx="5.5"/>
  <rect width="61" height="59" x="771.356" y="42.528" rx="5.5"/>
  <rect width="61" height="59" x="805.356" y="110.528" rx="5.5"/>
  <rect width="61" height="28" x="805.356" y="345.528" rx="5.5"/>
  <rect width="61" height="59" x="823.356" y="178.528" rx="5.5"/>
  <rect width="61" height="59" x="788.356" y="246.528" rx="5.5"/>
  <rect width="61" height="59" x="735.356" y="314.528" rx="5.5"/>
  <rect width="78" height="59" x="648.356" y="314.528" rx="5.5"/>
  <rect width="341" height="59" x="298.356" y="314.528" rx="5.5"/>
  <rect width="63" height="33" x="1.356" y=".527" rx="5.5"/>
  <rect width="63" height="33" x="73.756" y=".527" rx="5.5"/>
  <rect width="63" height="33" x="146.156" y=".527" rx="5.5"/>
  <rect width="63" height="33" x="218.556" y=".527" rx="5.5"/>
  <rect width="63" height="33" x="290.956" y=".527" rx="5.5"/>
  <rect width="63" height="33" x="363.356" y=".527" rx="5.5"/>
  <rect width="63" height="33" x="435.756" y=".527" rx="5.5"/>
  <rect width="63" height="33" x="508.156" y=".527" rx="5.5"/>
  <rect width="63" height="33" x="580.556" y=".527" rx="5.5"/>
  <rect width="63" height="33" x="652.956" y=".527" rx="5.5"/>
  <rect width="63" height="33" x="725.356" y=".527" rx="5.5"/>
  <rect width="63" height="33" x="797.756" y=".527" rx="5.5"/>
  <rect width="63" height="33" x="870.156" y=".527" rx="5.5"/>
  <rect width="65" height="33" x="942.356" y=".527" rx="5.5"/>
  <g>
    <path fill="black" d="M13.353 149.843h-.971v.984h.964v4.191c0 1.415.348 2.071 2.05 2.071.247 0 .493-.027.595-.048v-.943c-.095.014-.184.014-.3.014-.882 0-1.17-.219-1.17-1.081v-4.204h1.422v-.984h-1.421v-1.791h-1.17v1.791zm8.278 6.289h.034v.896h1.128v-4.956c0-1.511-1.114-2.345-2.645-2.345-1.737 0-2.591.916-2.666 2.174h1.107c.068-.718.595-1.19 1.518-1.19.97 0 1.517.52 1.517 1.463v.732h-1.893c-1.648.006-2.523.799-2.523 2.057 0 1.319.957 2.181 2.345 2.181 1.06 0 1.716-.431 2.078-1.012zm-1.764.034c-.752 0-1.456-.396-1.456-1.244 0-.649.424-1.114 1.409-1.114h1.804v.834c0 .895-.752 1.524-1.757 1.524zm8.285.978c1.73 0 2.865-1.285 2.865-3.363v-.698c0-2.16-1.176-3.349-2.85-3.349-.91 0-1.744.471-2.113 1.093h-.034v-3.623h-1.176v9.824h1.128v-1.08h.034c.424.738 1.121 1.196 2.146 1.196zm-.143-1.026c-1.258 0-2.003-.854-2.003-2.413v-.553c0-1.559.752-2.393 2.003-2.393 1.073 0 1.825.841 1.825 2.393v.567c0 1.538-.745 2.399-1.825 2.399zM12.614 221.76c0 1.914 1.074 3.384 2.98 3.384 1.648 0 2.55-.862 2.79-2.092h-1.155c-.13.574-.657 1.053-1.552 1.053-1.149 0-1.887-.93-1.887-2.338v-.67c0-1.449.69-2.331 1.88-2.331.78 0 1.347.554 1.504 1.162h1.155c-.061-1.101-1.073-2.201-2.734-2.201-1.873 0-2.98 1.388-2.98 3.322v.711zm11.423 2.372h.034v.896H25.2v-4.956c0-1.511-1.114-2.345-2.645-2.345-1.736 0-2.591.916-2.666 2.174h1.107c.069-.718.595-1.19 1.518-1.19.97 0 1.517.52 1.517 1.463v.732h-1.893c-1.648.006-2.523.799-2.523 2.057 0 1.319.957 2.181 2.345 2.181 1.06 0 1.716-.431 2.078-1.012zm-1.763.034c-.752 0-1.457-.396-1.457-1.244 0-.649.424-1.114 1.409-1.114h1.804v.834c0 .895-.752 1.524-1.756 1.524zm8.21.978c1.688 0 2.864-1.279 2.864-3.377v-.663c0-2.126-1.197-3.37-2.817-3.37-.963 0-1.702.464-2.119 1.141h-.034v-1.032H27.25v9.57h1.176v-3.342h.034c.403.635 1.107 1.073 2.023 1.073zm-.117-1.026c-1.223 0-1.962-.97-1.962-2.44v-.54c0-1.429.732-2.393 1.928-2.393 1.162 0 1.832.889 1.832 2.4v.533c0 1.579-.724 2.44-1.798 2.44zm4.498-4.217c0 1.298 1.1 1.709 2.44 1.982 1.006.198 1.806.356 1.806 1.169 0 .608-.5 1.128-1.6 1.128-.957 0-1.518-.431-1.62-1.087h-1.149c0 1.292 1.1 2.051 2.68 2.051 1.689 0 2.844-.807 2.844-2.236 0-1.401-1.135-1.763-2.482-2.002-.82-.151-1.77-.322-1.77-1.128 0-.711.615-1.087 1.47-1.087 1.12 0 1.462.642 1.503 1.189h1.094c0-1.189-.868-2.153-2.556-2.153-1.381 0-2.66.656-2.66 2.174zm9.926 5.127h1.17v-9.824h-1.17v9.824zm6.118-7.301c-2.01 0-3.09 1.456-3.09 3.377v.642c0 1.949 1.074 3.398 3.09 3.398 2.017 0 3.077-1.449 3.077-3.398v-.642c0-1.921-1.067-3.377-3.077-3.377zm0 1.005c1.23 0 1.9.943 1.9 2.413v.56c0 1.47-.67 2.42-1.9 2.42-1.237 0-1.914-.957-1.914-2.42v-.56c0-1.47.677-2.413 1.914-2.413zm4.608 3.028c0 1.914 1.073 3.384 2.98 3.384 1.648 0 2.55-.862 2.79-2.092H60.13c-.13.574-.656 1.053-1.552 1.053-1.148 0-1.886-.93-1.886-2.338v-.67c0-1.449.69-2.331 1.88-2.331.779 0 1.346.554 1.503 1.162h1.156c-.062-1.101-1.074-2.201-2.735-2.201-1.873 0-2.98 1.388-2.98 3.322v.711zm8.606.677l.663-.725 2.44 3.316h1.443l-3.015-4.061 2.837-3.124h-1.456l-2.864 3.179h-.048v-5.818h-1.176v9.824h1.176v-2.591z"/>
    <circle cx="14.356" cy="192.528" r="2.5" fill="black"/>
    <path fill="black" d="M12.607 287.901c0 1.298 1.101 1.709 2.441 1.982 1.005.198 1.805.356 1.805 1.169 0 .608-.5 1.128-1.6 1.128-.957 0-1.518-.431-1.62-1.087h-1.148c0 1.292 1.1 2.051 2.68 2.051 1.688 0 2.843-.807 2.843-2.236 0-1.401-1.135-1.763-2.481-2.002-.82-.151-1.771-.322-1.771-1.128 0-.711.615-1.087 1.47-1.087 1.12 0 1.463.642 1.504 1.189h1.093c0-1.189-.868-2.153-2.556-2.153-1.381 0-2.66.656-2.66 2.174zm7.096 5.127h1.176v-4.375c0-.985.533-1.86 1.77-1.86 1.053 0 1.757.615 1.757 1.825v4.41h1.176v-4.608c0-1.75-1.094-2.693-2.577-2.693-1.162 0-1.825.608-2.092 1.066h-.034v-3.589h-1.176v9.824zm7.937 0h1.176v-7.185H27.64v7.185zm-.164-8.914c0 .417.335.745.752.745a.75.75 0 00.758-.745.751.751 0 00-.758-.752.745.745 0 00-.752.752zm3.965 8.914h1.175v-6.201h1.409v-.984h-1.416v-.622c0-.875.377-1.128 1.156-1.128.178 0 .266.014.369.027v-.964a3.129 3.129 0 00-.526-.041c-1.477 0-2.167.636-2.167 2.01v.718h-.971v.984h.97v6.201zm4.826-7.185h-.971v.984h.964v4.191c0 1.415.349 2.071 2.05 2.071.247 0 .493-.027.595-.048v-.943a2.021 2.021 0 01-.3.014c-.882 0-1.17-.219-1.17-1.081v-4.204h1.422v-.984h-1.421v-1.791h-1.17v1.791zM13.353 361.028h1.175v-6.201h1.409v-.984h-1.415v-.622c0-.875.376-1.128 1.155-1.128.178 0 .267.014.369.027v-.964a3.128 3.128 0 00-.526-.041c-1.477 0-2.167.636-2.167 2.01v.718h-.971v.984h.97v6.201zm4.375 0h1.175v-4.375c0-.985.534-1.86 1.771-1.86 1.046 0 1.757.615 1.757 1.825v4.41h1.176v-4.608c0-1.75-1.101-2.693-2.578-2.693-1.169 0-1.832.608-2.098 1.066h-.034v-.95h-1.17v7.185zM81.275 357.76c0 1.914 1.073 3.384 2.98 3.384 1.648 0 2.55-.862 2.79-2.092h-1.156c-.13.574-.656 1.053-1.552 1.053-1.148 0-1.887-.93-1.887-2.338v-.67c0-1.449.69-2.331 1.88-2.331.78 0 1.347.554 1.504 1.162h1.155c-.061-1.101-1.073-2.201-2.734-2.201-1.873 0-2.98 1.388-2.98 3.322v.711zm10.212-4.033c-2.01 0-3.09 1.456-3.09 3.377v.642c0 1.949 1.074 3.398 3.09 3.398 2.017 0 3.077-1.449 3.077-3.398v-.642c0-1.921-1.067-3.377-3.077-3.377zm0 1.005c1.23 0 1.9.943 1.9 2.413v.56c0 1.47-.67 2.42-1.9 2.42-1.237 0-1.914-.957-1.914-2.42v-.56c0-1.47.677-2.413 1.914-2.413zm4.895 6.296h1.176v-4.375c0-.985.533-1.86 1.77-1.86 1.046 0 1.757.615 1.757 1.825v4.41h1.176v-4.608c0-1.75-1.101-2.693-2.577-2.693-1.17 0-1.832.608-2.099 1.066h-.034v-.95h-1.169v7.185zm8.312-7.185h-.97v.984h.964v4.191c0 1.415.348 2.071 2.05 2.071.246 0 .493-.027.595-.048v-.943c-.096.014-.184.014-.301.014-.881 0-1.169-.219-1.169-1.081v-4.204h1.422v-.984h-1.422v-1.791h-1.169v1.791zm4.403 7.185h1.182v-4.451c0-.97.397-1.763 1.668-1.763.219 0 .452.007.575.027v-1.073a3.096 3.096 0 00-.445-.034c-1.018 0-1.558.56-1.77.991h-.034v-.882h-1.176v7.185zm7.547-7.301c-2.01 0-3.09 1.456-3.09 3.377v.642c0 1.949 1.073 3.398 3.09 3.398 2.016 0 3.076-1.449 3.076-3.398v-.642c0-1.921-1.067-3.377-3.076-3.377zm0 1.005c1.23 0 1.9.943 1.9 2.413v.56c0 1.47-.67 2.42-1.9 2.42-1.238 0-1.914-.957-1.914-2.42v-.56c0-1.47.676-2.413 1.914-2.413zm4.942 6.296h1.169v-9.824h-1.169v9.824zM658.614 357.76c0 1.914 1.074 3.384 2.981 3.384 1.647 0 2.55-.862 2.789-2.092h-1.155c-.13.574-.657 1.053-1.552 1.053-1.149 0-1.887-.93-1.887-2.338v-.67c0-1.449.691-2.331 1.88-2.331.779 0 1.347.554 1.504 1.162h1.155c-.061-1.101-1.073-2.201-2.734-2.201-1.873 0-2.981 1.388-2.981 3.322v.711zm10.213-4.033c-2.009 0-3.09 1.456-3.09 3.377v.642c0 1.949 1.074 3.398 3.09 3.398 2.017 0 3.076-1.449 3.076-3.398v-.642c0-1.921-1.066-3.377-3.076-3.377zm0 1.005c1.231 0 1.901.943 1.901 2.413v.56c0 1.47-.67 2.42-1.901 2.42-1.237 0-1.914-.957-1.914-2.42v-.56c0-1.47.677-2.413 1.914-2.413zm4.895 6.296h1.176v-4.553c0-1.087.69-1.689 1.572-1.689.977 0 1.565.602 1.565 1.703v4.539h1.169v-4.539c0-.999.568-1.703 1.586-1.703 1.026 0 1.552.677 1.552 1.593v4.649h1.169v-4.888c0-1.477-.896-2.413-2.413-2.413-1.169 0-1.928.54-2.201 1.155h-.055c-.28-.704-.95-1.155-2.071-1.155-.951 0-1.586.506-1.819.998h-.061v-.882h-1.169v7.185zm11.853 0h1.176v-4.553c0-1.087.691-1.689 1.572-1.689.978 0 1.566.602 1.566 1.703v4.539h1.169v-4.539c0-.999.567-1.703 1.586-1.703 1.025 0 1.551.677 1.551 1.593v4.649h1.169v-4.888c0-1.477-.895-2.413-2.413-2.413-1.169 0-1.927.54-2.201 1.155h-.055c-.28-.704-.95-1.155-2.071-1.155-.95 0-1.586.506-1.818.998h-.062v-.882h-1.169v7.185zm15.867-.896h.034v.896h1.128v-4.956c0-1.511-1.115-2.345-2.646-2.345-1.736 0-2.591.916-2.666 2.174h1.108c.068-.718.594-1.19 1.517-1.19.971 0 1.518.52 1.518 1.463v.732h-1.894c-1.647.006-2.522.799-2.522 2.057 0 1.319.957 2.181 2.344 2.181 1.06 0 1.716-.431 2.079-1.012zm-1.764.034c-.752 0-1.456-.396-1.456-1.244 0-.649.424-1.114 1.408-1.114h1.805v.834c0 .895-.752 1.524-1.757 1.524zm4.956.862h1.176v-4.375c0-.985.533-1.86 1.77-1.86 1.046 0 1.757.615 1.757 1.825v4.41h1.176v-4.608c0-1.75-1.101-2.693-2.577-2.693-1.169 0-1.832.608-2.099 1.066h-.034v-.95h-1.169v7.185zm10.445-7.294c-1.811 0-2.871 1.422-2.871 3.377v.649c0 2.003.998 3.377 2.871 3.377.964 0 1.716-.451 2.119-1.189h.028v1.08h1.128v-9.824h-1.176v3.637h-.034c-.363-.636-1.115-1.107-2.065-1.107zm.164 1.025c1.21 0 1.955.943 1.955 2.393v.574c0 1.524-.731 2.386-1.934 2.386-1.087 0-1.873-.793-1.873-2.393v-.567c0-1.6.786-2.393 1.852-2.393zM749.704 353.727c-2.01 0-3.09 1.456-3.09 3.377v.642c0 1.949 1.074 3.398 3.09 3.398 2.017 0 3.076-1.449 3.076-3.398v-.642c0-1.921-1.066-3.377-3.076-3.377zm0 1.005c1.231 0 1.901.943 1.901 2.413v.56c0 1.47-.67 2.42-1.901 2.42-1.237 0-1.914-.957-1.914-2.42v-.56c0-1.47.677-2.413 1.914-2.413zm8.149 6.412c1.688 0 2.864-1.279 2.864-3.377v-.663c0-2.126-1.196-3.37-2.816-3.37-.964 0-1.703.464-2.12 1.141h-.034v-1.032h-1.128v9.57h1.176v-3.342h.034c.404.635 1.108 1.073 2.024 1.073zm-.117-1.026c-1.223 0-1.961-.97-1.961-2.44v-.54c0-1.429.731-2.393 1.927-2.393 1.162 0 1.832.889 1.832 2.4v.533c0 1.579-.724 2.44-1.798 2.44zm5.244-6.275h-.971v.984h.964v4.191c0 1.415.348 2.071 2.051 2.071.246 0 .492-.027.594-.048v-.943c-.095.014-.184.014-.3.014-.882 0-1.169-.219-1.169-1.081v-4.204h1.421v-.984h-1.421v-1.791h-1.169v1.791zm4.47 7.185h1.176v-7.185h-1.176v7.185zm-.164-8.914c0 .417.335.745.752.745a.75.75 0 00.759-.745.751.751 0 00-.759-.752.745.745 0 00-.752.752zm6.317 1.613c-2.01 0-3.09 1.456-3.09 3.377v.642c0 1.949 1.073 3.398 3.09 3.398 2.016 0 3.076-1.449 3.076-3.398v-.642c0-1.921-1.067-3.377-3.076-3.377zm0 1.005c1.23 0 1.9.943 1.9 2.413v.56c0 1.47-.67 2.42-1.9 2.42-1.238 0-1.914-.957-1.914-2.42v-.56c0-1.47.676-2.413 1.914-2.413zm4.894 6.296h1.176v-4.375c0-.985.533-1.86 1.77-1.86 1.046 0 1.757.615 1.757 1.825v4.41h1.176v-4.608c0-1.75-1.1-2.693-2.577-2.693-1.169 0-1.832.608-2.099 1.066h-.034v-.95h-1.169v7.185zM909.856 332.028h-7l3.5-8 3.5 8zM901.856 356.028h7l-3.5 8-3.5-8zM839.856 356.028v7l-8-3.5 8-3.5zM972.856 363.028v-7l8 3.5-8 3.5zM158.247 353.727c-2.01 0-3.09 1.456-3.09 3.377v.642c0 1.949 1.074 3.398 3.09 3.398 2.017 0 3.076-1.449 3.076-3.398v-.642c0-1.921-1.066-3.377-3.076-3.377zm0 1.005c1.231 0 1.901.943 1.901 2.413v.56c0 1.47-.67 2.42-1.901 2.42-1.237 0-1.914-.957-1.914-2.42v-.56c0-1.47.677-2.413 1.914-2.413zm8.149 6.412c1.688 0 2.864-1.279 2.864-3.377v-.663c0-2.126-1.196-3.37-2.817-3.37-.963 0-1.702.464-2.119 1.141h-.034v-1.032h-1.128v9.57h1.176v-3.342h.034c.404.635 1.108 1.073 2.024 1.073zm-.117-1.026c-1.223 0-1.961-.97-1.961-2.44v-.54c0-1.429.731-2.393 1.927-2.393 1.162 0 1.832.889 1.832 2.4v.533c0 1.579-.724 2.44-1.798 2.44zm5.244-6.275h-.971v.984h.964v4.191c0 1.415.348 2.071 2.051 2.071.246 0 .492-.027.594-.048v-.943c-.095.014-.184.014-.301.014-.881 0-1.168-.219-1.168-1.081v-4.204h1.421v-.984h-1.421v-1.791h-1.169v1.791zm4.47 7.185h1.176v-7.185h-1.176v7.185zm-.164-8.914c0 .417.335.745.752.745a.75.75 0 00.759-.745.751.751 0 00-.759-.752.745.745 0 00-.752.752zm6.317 1.613c-2.01 0-3.09 1.456-3.09 3.377v.642c0 1.949 1.073 3.398 3.09 3.398 2.016 0 3.076-1.449 3.076-3.398v-.642c0-1.921-1.067-3.377-3.076-3.377zm0 1.005c1.23 0 1.9.943 1.9 2.413v.56c0 1.47-.67 2.42-1.9 2.42-1.238 0-1.914-.957-1.914-2.42v-.56c0-1.47.676-2.413 1.914-2.413zm4.894 6.296h1.176v-4.375c0-.985.533-1.86 1.77-1.86 1.046 0 1.757.615 1.757 1.825v4.41h1.176v-4.608c0-1.75-1.101-2.693-2.577-2.693-1.169 0-1.832.608-2.099 1.066h-.034v-.95h-1.169v7.185zM220.05 357.76c0 1.914 1.073 3.384 2.98 3.384 1.648 0 2.55-.862 2.789-2.092h-1.155c-.13.574-.656 1.053-1.552 1.053-1.148 0-1.886-.93-1.886-2.338v-.67c0-1.449.69-2.331 1.88-2.331.779 0 1.346.554 1.503 1.162h1.156c-.062-1.101-1.073-2.201-2.735-2.201-1.873 0-2.98 1.388-2.98 3.322v.711zm10.213-4.033c-2.01 0-3.09 1.456-3.09 3.377v.642c0 1.949 1.073 3.398 3.09 3.398 2.016 0 3.076-1.449 3.076-3.398v-.642c0-1.921-1.066-3.377-3.076-3.377zm0 1.005c1.23 0 1.9.943 1.9 2.413v.56c0 1.47-.67 2.42-1.9 2.42-1.237 0-1.914-.957-1.914-2.42v-.56c0-1.47.677-2.413 1.914-2.413zm4.894 6.296h1.176v-4.553c0-1.087.691-1.689 1.572-1.689.978 0 1.566.602 1.566 1.703v4.539h1.169v-4.539c0-.999.567-1.703 1.586-1.703 1.025 0 1.551.677 1.551 1.593v4.649h1.169v-4.888c0-1.477-.895-2.413-2.413-2.413-1.169 0-1.927.54-2.201 1.155h-.055c-.28-.704-.95-1.155-2.071-1.155-.95 0-1.586.506-1.818.998h-.062v-.882h-1.169v7.185zm11.854 0h1.176v-4.553c0-1.087.69-1.689 1.572-1.689.977 0 1.565.602 1.565 1.703v4.539h1.169v-4.539c0-.999.568-1.703 1.586-1.703 1.026 0 1.552.677 1.552 1.593v4.649h1.169v-4.888c0-1.477-.896-2.413-2.413-2.413-1.169 0-1.928.54-2.201 1.155h-.055c-.28-.704-.95-1.155-2.071-1.155-.951 0-1.586.506-1.819.998h-.061v-.882h-1.169v7.185zm15.866-.896h.034v.896h1.128v-4.956c0-1.511-1.114-2.345-2.645-2.345-1.737 0-2.591.916-2.666 2.174h1.107c.068-.718.595-1.19 1.518-1.19.97 0 1.517.52 1.517 1.463v.732h-1.893c-1.648.006-2.523.799-2.523 2.057 0 1.319.957 2.181 2.345 2.181 1.06 0 1.716-.431 2.078-1.012zm-1.764.034c-.752 0-1.456-.396-1.456-1.244 0-.649.424-1.114 1.409-1.114h1.804v.834c0 .895-.752 1.524-1.757 1.524zm4.956.862h1.176v-4.375c0-.985.533-1.86 1.771-1.86 1.046 0 1.757.615 1.757 1.825v4.41h1.175v-4.608c0-1.75-1.1-2.693-2.577-2.693-1.169 0-1.832.608-2.098 1.066h-.035v-.95h-1.169v7.185zm10.446-7.294c-1.812 0-2.871 1.422-2.871 3.377v.649c0 2.003.998 3.377 2.871 3.377.964 0 1.716-.451 2.119-1.189h.027v1.08h1.128v-9.824h-1.176v3.637h-.034c-.362-.636-1.114-1.107-2.064-1.107zm.164 1.025c1.21 0 1.955.943 1.955 2.393v.574c0 1.524-.732 2.386-1.935 2.386-1.087 0-1.873-.793-1.873-2.393v-.567c0-1.6.786-2.393 1.853-2.393zM962.204 81.734c-1.811 0-2.871 1.422-2.871 3.377v.649c0 2.003.998 3.377 2.871 3.377.964 0 1.716-.451 2.119-1.19h.028v1.08h1.128v-9.823h-1.176v3.637h-.034c-.363-.636-1.115-1.107-2.065-1.107zm.164 1.025c1.21 0 1.955.943 1.955 2.393v.574c0 1.524-.731 2.386-1.934 2.386-1.087 0-1.873-.793-1.873-2.393v-.567c0-1.6.786-2.393 1.852-2.393zm7.95 6.385c1.586 0 2.537-.882 2.81-2.072h-1.169c-.232.67-.779 1.087-1.613 1.087-1.169 0-1.866-.936-1.866-2.303v-.13h4.744v-.67c0-1.976-1.08-3.33-2.96-3.33-1.887 0-2.96 1.354-2.96 3.248v.806c0 2.044 1.141 3.364 3.014 3.364zm-1.838-4.368v-.02c0-1.136.697-2.045 1.791-2.045 1.073 0 1.777.903 1.777 2.044v.02h-3.568zm6.569 4.252h1.169v-9.824h-1.169v9.824zm6.043.116c1.586 0 2.536-.882 2.809-2.072h-1.168c-.233.67-.78 1.087-1.614 1.087-1.169 0-1.866-.936-1.866-2.303v-.13h4.744v-.67c0-1.976-1.08-3.33-2.96-3.33-1.886 0-2.96 1.354-2.96 3.248v.806c0 2.044 1.142 3.364 3.015 3.364zm-1.839-4.368v-.02c0-1.136.697-2.045 1.791-2.045 1.073 0 1.777.903 1.777 2.044v.02h-3.568zm6.973-2.933h-.971v.984h.964v4.19c0 1.416.349 2.072 2.051 2.072.246 0 .492-.027.594-.048v-.943c-.095.014-.184.014-.3.014-.882 0-1.169-.22-1.169-1.08v-4.205h1.422v-.984h-1.422v-1.791h-1.169v1.791zm6.993 7.3c1.586 0 2.536-.881 2.809-2.07h-1.169c-.232.67-.779 1.086-1.613 1.086-1.169 0-1.866-.936-1.866-2.303v-.13h4.744v-.67c0-1.976-1.08-3.33-2.96-3.33-1.887 0-2.96 1.354-2.96 3.248v.806c0 2.044 1.142 3.364 3.015 3.364zm-1.839-4.367v-.02c0-1.136.697-2.045 1.791-2.045 1.073 0 1.777.903 1.777 2.044v.02h-3.568zM960.345 225.028h1.182v-4.451c0-.97.397-1.763 1.668-1.763.219 0 .452.007.575.027v-1.073a3.096 3.096 0 00-.445-.034c-1.018 0-1.558.56-1.77.991h-.034v-.882h-1.176v7.185zm7.472.116c1.585 0 2.536-.882 2.809-2.071h-1.169c-.232.669-.779 1.086-1.613 1.086-1.169 0-1.866-.936-1.866-2.303v-.13h4.744v-.67c0-1.976-1.08-3.329-2.96-3.329-1.887 0-2.96 1.353-2.96 3.247v.807c0 2.043 1.141 3.363 3.015 3.363zm-1.839-4.368v-.021c0-1.135.697-2.044 1.791-2.044 1.073 0 1.777.903 1.777 2.044v.021h-3.568zm6.972-2.933h-.97v.984h.963v4.191c0 1.415.349 2.071 2.051 2.071.246 0 .492-.027.595-.048v-.943a2.027 2.027 0 01-.301.014c-.882 0-1.169-.219-1.169-1.081v-4.204h1.422v-.984h-1.422v-1.791h-1.169v1.791zm9.994 0h-1.182v4.45c0 1.142-.725 1.791-1.757 1.791-.943 0-1.716-.43-1.716-1.77v-4.471h-1.182v4.806c0 1.647 1.059 2.495 2.543 2.495 1.148 0 1.825-.492 2.078-1.06h.048v.944h1.168v-7.185zm2.092 7.185h1.183v-4.451c0-.97.396-1.763 1.668-1.763.219 0 .451.007.574.027v-1.073a3.082 3.082 0 00-.444-.034c-1.019 0-1.559.56-1.771.991h-.034v-.882h-1.176v7.185zm5.004 0h1.176v-4.375c0-.985.533-1.86 1.77-1.86 1.046 0 1.757.615 1.757 1.825v4.41h1.176v-4.608c0-1.75-1.101-2.693-2.577-2.693-1.169 0-1.832.608-2.099 1.066h-.034v-.95h-1.169v7.185zM969.977 287.901c0 1.298 1.1 1.709 2.44 1.982 1.005.198 1.805.356 1.805 1.169 0 .608-.499 1.128-1.6 1.128-.957 0-1.517-.431-1.62-1.087h-1.148c0 1.292 1.1 2.051 2.679 2.051 1.689 0 2.844-.807 2.844-2.236 0-1.401-1.135-1.763-2.481-2.002-.821-.151-1.771-.322-1.771-1.128 0-.711.615-1.087 1.47-1.087 1.121 0 1.463.642 1.504 1.189h1.094c0-1.189-.869-2.153-2.557-2.153-1.381 0-2.659.656-2.659 2.174zm7.095 5.127h1.176v-4.375c0-.985.533-1.86 1.771-1.86 1.052 0 1.757.615 1.757 1.825v4.41h1.175v-4.608c0-1.75-1.093-2.693-2.577-2.693-1.162 0-1.825.608-2.092 1.066h-.034v-3.589h-1.176v9.824zm7.937 0h1.176v-7.185h-1.176v7.185zm-.164-8.914c0 .417.335.745.752.745a.75.75 0 00.759-.745.751.751 0 00-.759-.752.745.745 0 00-.752.752zm3.965 8.914h1.175v-6.201h1.409v-.984h-1.415v-.622c0-.875.376-1.128 1.155-1.128.178 0 .267.014.369.027v-.964a3.126 3.126 0 00-.526-.041c-1.477 0-2.167.636-2.167 2.01v.718h-.971v.984h.971v6.201zm4.826-7.185h-.971v.984h.964v4.191c0 1.415.349 2.071 2.051 2.071.246 0 .492-.027.595-.048v-.943c-.096.014-.185.014-.301.014-.882 0-1.169-.219-1.169-1.081v-4.204h1.422v-.984h-1.422v-1.791h-1.169v1.791zM661.734 330.279v2.167h-.922c-1.033 0-1.873.806-1.873 1.845s.84 1.88 1.873 1.88a1.878 1.878 0 001.873-1.88v-.916h2.126v.916c0 1.039.84 1.88 1.873 1.88a1.878 1.878 0 001.873-1.88c0-1.039-.841-1.845-1.873-1.845h-.93v-2.167h.93c1.032 0 1.873-.807 1.873-1.846 0-1.039-.841-1.88-1.873-1.88a1.877 1.877 0 00-1.873 1.88v.923h-2.126v-.923c0-1.039-.841-1.88-1.873-1.88a1.877 1.877 0 00-1.873 1.88c0 1.039.84 1.846 1.873 1.846h.922zm-.916-.916a.93.93 0 01-.006-1.86.93.93 0 01.922.937v.923h-.916zm5.859 0h-.923v-.923c0-.52.424-.937.93-.937a.93.93 0 01-.007 1.86zm-3.992 3.089v-2.18h2.126v2.18h-2.126zm-1.867.903h.916v.929c0 .513-.416.93-.922.93a.93.93 0 01.006-1.859zm5.859 0a.93.93 0 01.007 1.859.935.935 0 01-.93-.93v-.929h.923zM749.843 327.028h-2.406a.567.567 0 00-.581.56c0 .315.259.554.581.554h2.139c.171 0 .287.075.363.232l3.24 7.26c.212.472.54.684 1.046.684h2.413a.572.572 0 00.581-.561.567.567 0 00-.581-.554h-2.126c-.198 0-.315-.075-.39-.232l-3.226-7.253a1.118 1.118 0 00-1.053-.69zm6.795 0h-3.111c-.328 0-.574.239-.574.553 0 .315.246.554.574.554h3.111c.328 0 .581-.239.581-.554 0-.314-.253-.553-.581-.553zM185.434 327.028h-2.407a.568.568 0 00-.581.56c0 .315.26.554.581.554h2.14a.37.37 0 01.362.232l3.241 7.26c.212.472.54.684 1.046.684h2.413a.572.572 0 00.581-.561.567.567 0 00-.581-.554h-2.126c-.199 0-.315-.075-.39-.232l-3.227-7.253a1.116 1.116 0 00-1.052-.69zm6.795 0h-3.111c-.328 0-.574.239-.574.553 0 .315.246.554.574.554h3.111c.328 0 .581-.239.581-.554 0-.314-.253-.553-.581-.553zM113.656 330.723a.559.559 0 00-.171.403c0 .328.253.574.575.574.164 0 .3-.061.41-.164l3.555-3.575 3.547 3.575c.11.103.253.164.411.164a.56.56 0 00.574-.574.582.582 0 00-.164-.403l-3.951-3.972a.574.574 0 00-.841 0l-3.945 3.972zM272.734 330.279v2.167h-.922c-1.033 0-1.873.806-1.873 1.845s.84 1.88 1.873 1.88a1.878 1.878 0 001.873-1.88v-.916h2.126v.916c0 1.039.84 1.88 1.873 1.88a1.878 1.878 0 001.873-1.88c0-1.039-.841-1.845-1.873-1.845h-.93v-2.167h.93c1.032 0 1.873-.807 1.873-1.846 0-1.039-.841-1.88-1.873-1.88a1.877 1.877 0 00-1.873 1.88v.923h-2.126v-.923c0-1.039-.841-1.88-1.873-1.88a1.877 1.877 0 00-1.873 1.88c0 1.039.84 1.846 1.873 1.846h.922zm-.916-.916a.93.93 0 01-.006-1.86.93.93 0 01.922.937v.923h-.916zm5.859 0h-.923v-.923c0-.52.424-.937.93-.937a.93.93 0 01-.007 1.86zm-3.992 3.089v-2.18h2.126v2.18h-2.126zm-1.867.903h.916v.929c0 .513-.416.93-.922.93a.93.93 0 01.006-1.859zm5.859 0a.93.93 0 01.007 1.859.935.935 0 01-.93-.93v-.929h.923zM101.494 52.03l.194 8.43h1.327l.193-8.43h-1.714zm-.158 11.171c0 .554.457.994 1.011.994a.997.997 0 100-1.995c-.554 0-1.011.439-1.011 1.001zM175.959 62.859c1.732 0 3.032-1.547 3.032-3.964v-.449c0-3.04-2.241-5.906-6.389-5.906h-.071c-3.823 0-6.697 2.62-6.697 6.742v.518c0 4.395 2.988 6.592 6.645 6.592h.07c1.433 0 2.382-.194 2.874-.422v-1.116c-.633.272-1.521.448-2.865.448h-.071c-2.944 0-5.422-1.82-5.422-5.555v-.413c0-3.533 2.381-5.704 5.466-5.704h.071c3.331 0 5.185 2.294 5.185 4.852v.316c0 2.074-.782 3.006-1.661 3.006-.615 0-1.081-.352-1.081-1.055V56.46h-1.239v.993h-.071c-.158-.492-.729-1.116-1.731-1.116-1.529 0-2.373 1.178-2.373 2.848v.79c0 1.715.826 2.884 2.294 2.884 1.046 0 1.775-.668 1.925-1.213h.088c.114.571.755 1.213 2.021 1.213zm-5.036-3.05v-.554c0-1.283.624-1.872 1.415-1.872.809 0 1.441.624 1.441 1.793v.703c0 1.319-.597 1.855-1.423 1.855-.844 0-1.433-.554-1.433-1.925zM247.216 56.522l.237-1.16h-2.004l.677-3.331h-1.204l-.677 3.33h-2.795l.686-3.33h-1.231l-.668 3.33h-1.88l-.229 1.16H240l-.589 2.91h-1.898l-.246 1.178h1.881l-.686 3.419h1.213l.703-3.42h2.786l-.694 3.42h1.213l.685-3.42h1.987l.237-1.177h-1.986l.606-2.91h2.004zm-6.012-.018h2.822l-.616 2.953h-2.821l.615-2.953zM313.006 58.772l.352.088c1.3.334 1.872.887 1.872 1.828 0 1.133-.835 1.88-2.224 2.004v-3.92zm-1.257-1.846c-1.055-.272-1.617-.852-1.617-1.67 0-.975.712-1.687 1.819-1.89v3.613l-.202-.053zm1.257.334v-3.929c1.125.123 1.898.739 2.092 1.67h1.485c-.176-1.652-1.564-2.839-3.577-2.98v-1.239h-1.055v1.275c-1.96.237-3.304 1.53-3.304 3.26 0 1.504.975 2.567 2.689 3.015l.615.158v4.175c-1.16-.175-1.96-.826-2.153-1.775h-1.477c.159 1.722 1.53 2.944 3.63 3.102v1.257h1.055v-1.265c2.294-.176 3.718-1.486 3.718-3.402 0-1.643-.958-2.593-2.989-3.129l-.729-.193zM386.054 60.987c0-1.117.351-1.644.87-1.644.51 0 .861.527.861 1.644v.351c0 1.116-.351 1.652-.861 1.652-.519 0-.87-.536-.87-1.652v-.351zm-1.424.36c0 1.652.809 2.786 2.276 2.786 1.521 0 2.303-1.222 2.303-2.786v-.37c0-1.66-.8-2.777-2.276-2.777-1.459 0-2.303 1.125-2.303 2.778v.369zm-5.704-6.987c0-1.117.351-1.644.87-1.644.51 0 .861.527.861 1.644v.351c0 1.116-.351 1.653-.861 1.653-.519 0-.87-.537-.87-1.653v-.351zm-1.424.36c0 1.652.809 2.786 2.276 2.786 1.521 0 2.303-1.222 2.303-2.786v-.37c0-1.66-.8-2.776-2.276-2.776-1.459 0-2.303 1.125-2.303 2.777v.369zm2.013 9.308l4.553-5.977 4.596-6.02h-1.459l-4.535 5.959-4.614 6.038h1.459zM455.265 57.04l-2.18-5.01h-1.45l-2.197 5.01h1.283l1.608-3.779h.044l1.6 3.78h1.292zM525.767 64.028h1.898l-2.074-2.207c.677-1.037.976-2.47.976-4.262v-.37h-1.407v.361c0 1.433-.158 2.531-.553 3.27l-2.91-3.173c1.398-.739 2.549-1.565 2.549-3.041 0-1.582-1.318-2.681-3.032-2.681-1.793 0-3.032 1.187-3.032 2.654 0 1.108.712 1.952 1.476 2.76-.149.07-.299.15-.439.22-1.362.747-2.347 1.731-2.347 3.313 0 2.118 1.784 3.384 4.008 3.384 1.143 0 2.602-.334 3.806-1.397l1.081 1.169zm-5.678-5.59c.114-.07.246-.132.387-.202l3.331 3.673c-.747.783-1.899 1.1-2.795 1.1-1.354 0-2.646-.722-2.646-2.242 0-1.099.686-1.767 1.723-2.33zm.791-1.635c-.958-.967-1.257-1.512-1.257-2.136 0-.905.642-1.564 1.6-1.564.923 0 1.599.615 1.599 1.547 0 1.028-.817 1.573-1.942 2.153zM592.874 57.47l-.114-2.126 1.784 1.178.527-.923-1.88-.95 1.88-.966-.527-.923-1.784 1.195.123-2.144h-1.046l.114 2.153-1.784-1.204-.527.932 1.872.958-1.872.949.527.923 1.784-1.178-.105 2.127h1.028z"/>
    <path fill="black" d="M663.192 51.398c-1.706 2.048-2.47 4.42-2.47 7.532 0 3.102.896 5.915 2.39 7.813h1.31c-1.477-2.61-2.197-4.983-2.197-7.83 0-2.954.967-6.074 2.223-7.515h-1.256zM729.254 51.398c1.257 1.441 2.224 4.561 2.224 7.514 0 2.848-.712 5.221-2.198 7.831h1.319c1.494-1.898 2.39-4.71 2.39-7.813 0-3.111-.773-5.484-2.478-7.532h-1.257zM807.357 59.782V58.43h-10.002v1.353h10.002zM834.66 126.798c.985-.097 1.494-.712 1.494-1.942v-2.417c0-1.275.501-1.855 1.934-1.855h.36v-1.186h-.501c-2.012 0-3.199.756-3.199 2.865v2.074c0 1.222-.29 1.776-1.494 1.776v1.59c1.204 0 1.494.545 1.494 1.767v2.329c0 2.109 1.187 2.944 3.199 2.944h.501v-1.195h-.36c-1.433 0-1.934-.58-1.934-1.854v-2.725c0-1.222-.509-1.881-1.494-1.969v-.202zM852.379 192.232l1.151-4.201h-1.59l-.739 4.201h1.178zm2.98 0l1.151-4.201h-1.591l-.738 4.201h1.178zM783.31 199.184c0 .554.457 1.011 1.019 1.011a1.017 1.017 0 000-2.031 1.02 1.02 0 00-1.019 1.02zm0-6.258c0 .563.457 1.02 1.019 1.02a1.017 1.017 0 000-2.031c-.562 0-1.019.457-1.019 1.011zM675.594 264.16l7.515 4.21v-1.599l-5.924-3.243v-.088l5.924-3.437v-1.608l-7.515 4.526v1.239zM753.117 262.921l-7.523-4.526v1.608l5.941 3.437v.088l-5.941 3.243v1.599l7.523-4.21v-1.239zM815.77 259.177h1.45c0-1.204.694-2.136 2.118-2.136 1.055 0 2.039.51 2.039 1.793 0 .923-.518 1.345-1.336 2.004-.852.686-1.687 1.415-1.679 2.663l.009.765h1.477v-.536c0-1.02.369-1.319 1.38-2.127.826-.668 1.696-1.398 1.696-2.857 0-2.039-1.723-2.997-3.524-2.997-1.662 0-3.639.809-3.63 3.428zm2.364 8.024c0 .554.457.994 1.011.994a.998.998 0 100-1.996c-.554 0-1.011.44-1.011 1.002zM907.051 127c-.976.088-1.494.747-1.494 1.969v2.725c0 1.274-.501 1.854-1.943 1.854h-.36v1.195h.51c2.004 0 3.19-.835 3.199-2.944v-2.329c0-1.222.29-1.767 1.485-1.767v-1.59c-1.195 0-1.485-.554-1.485-1.776v-2.074c0-2.109-1.195-2.865-3.199-2.865h-.51v1.186h.36c1.442 0 1.943.58 1.943 1.855v2.417c0 1.23.518 1.845 1.494 1.942V127zM977.515 134.743v-15.345h-1.319v15.345h1.319zM834.537 144.398v15.345h3.911v-1.195h-2.469v-12.955h2.469v-1.195h-3.911zM854.338 211.031l-1.151 4.201h1.59l.739-4.201h-1.178zM783.31 217.926c0 .563.457 1.02 1.01 1.02a1.02 1.02 0 001.02-1.02c0-.554-.457-1.011-1.02-1.011-.553 0-1.01.457-1.01 1.011zm.545 9.598l1.142-4.21h-1.582l-.738 4.21h1.178zM678.583 293.524l1.151-4.21h-1.582l-.738 4.21h1.169zM748.354 290.184c0 .554.457 1.011 1.01 1.011.563 0 1.02-.457 1.02-1.011a1.02 1.02 0 00-1.02-1.02c-.553 0-1.01.457-1.01 1.02zM817.388 293.743l4.324-15.345h-1.397l-4.325 15.345h1.398zM903.254 144.398v1.195h2.487v12.955h-2.487v1.195h3.92v-15.345h-3.92zM978.315 159.743h1.397l-4.324-15.345h-1.398l4.325 15.345zM872.971 59.88h3.603V58.63h-3.603v-3.709h-1.239v3.71h-3.586v1.247h3.586v3.92h1.239v-3.92z"/>
    <path fill="black" d="M33.675 59.695c1.635 0 2.417-1.39 2.408-2.866h-1.336c-.044.835-.404 1.547-1.125 1.547-1.186 0-1.643-1.925-3.595-1.925-1.67 0-2.434 1.407-2.425 2.866h1.336c.035-.835.413-1.538 1.133-1.538 1.187 0 1.697 1.916 3.604 1.916zM33.418 77.436l-1.797-2.666h-1.709l2.217 2.666h1.29zM103.867 89.028v-13.33h-1.582c-.967.517-2.334 1.328-3.281 2.011v1.739c.879-.606 2.48-1.592 3.145-1.944h.029v11.524h1.689zM131.48 141.776c0 4.157 2.309 6.563 5.854 6.563.945 0 1.816-.193 2.557-.516l1.353 1.859h2.106l-2.02-2.804c1.193-1.106 1.891-2.847 1.891-5.102v-2.149c0-4.157-2.331-6.574-5.887-6.574-3.545 0-5.854 2.417-5.854 6.574v2.149zm1.858-2.138c0-3.287 1.74-4.898 3.996-4.898 2.277 0 4.018 1.611 4.018 4.898v2.127c0 1.611-.419 2.804-1.107 3.609l-1.278-1.708h-2.106l1.988 2.718a3.856 3.856 0 01-1.515.301c-2.256-.011-3.996-1.612-3.996-4.92v-2.127zM202.74 148.028l3.083-11.505h.065l3.083 11.505h1.665l4.05-14.663h-2.084l-2.836 11.472h-.065l-2.889-11.472H204.9l-2.912 11.472h-.053l-2.836-11.472h-2.073l4.028 14.663h1.686zM280.518 146.352h-6.929v-4.995h6.542v-1.633h-6.542v-4.684h6.929v-1.675h-8.798v14.663h8.798v-1.676zM346.393 133.365h-5.296v14.663h1.869v-5.833h3.556l2.707 5.833h2.137l-2.986-6.209c1.289-.462 2.729-1.676 2.729-4.082 0-2.299-1.451-4.372-4.716-4.372zm-3.427 7.186v-5.532h3.19c1.827 0 3.019.956 3.019 2.825 0 1.729-1.053 2.707-3.105 2.707h-3.104zM416.779 148.028V135.04h4.458v-1.675h-10.774v1.675h4.458v12.988h1.858zM486.779 148.028V141.7l4.91-8.335h-2.127l-3.674 6.509h-.065l-3.663-6.509h-2.148l4.909 8.346v6.317h1.858zM552.65 133.365h-1.859v9.786c0 3.029 2.073 5.188 5.554 5.188 3.491 0 5.564-2.159 5.564-5.188v-9.786h-1.858v9.539c0 2.277-1.45 3.749-3.706 3.749-2.245 0-3.695-1.461-3.695-3.749v-9.539zM626.801 148.028v-14.663h-1.88v14.663h1.88zM692.359 139.681c0-3.276 1.741-4.941 3.997-4.941 2.266 0 3.996 1.665 3.996 4.941v2.17c0 3.287-1.73 4.802-3.996 4.802-2.256 0-3.997-1.515-3.997-4.802v-2.17zm-1.879 2.17c0 4.146 2.298 6.488 5.854 6.488 3.567 0 5.898-2.342 5.898-6.488v-2.159c0-4.168-2.299-6.639-5.855-6.639-3.556 0-5.897 2.471-5.897 6.639v2.159zM649.296 201.365h-2.213l-6.381 7.089h-.075v-7.089h-1.88v14.663h1.88v-5.157l1.805-1.965 4.769 7.122h2.385l-5.758-8.422 5.468-6.241zM510.931 216.028v-14.663h-1.88v6.241h-7.38v-6.241h-1.88v14.663h1.88v-6.757h7.38v6.757h1.88zM362.965 216.028V209.7h6.22v-1.675h-6.22v-4.985h6.778v-1.675h-8.658v14.663h1.88zM218.802 212.074c.054 1.902 1.396 4.265 5.285 4.265 3.051 0 5.468-1.504 5.468-4.393 0-2.353-1.558-3.395-3.814-3.986l-2.535-.677c-1.407-.354-2.062-1.127-2.062-2.169 0-1.569 1.321-2.439 3.136-2.439 2.052 0 3.126 1.106 3.255 2.514h1.859c-.065-2.847-2.578-4.168-5.071-4.168-2.631 0-5.081 1.471-5.081 4.221 0 2.289 1.687 3.395 3.427 3.846l2.578.677c1.633.419 2.396 1.106 2.396 2.32 0 1.601-1.311 2.589-3.352 2.589-2.256 0-3.47-1.182-3.609-2.6h-1.88zM265.328 269.365h-2.159l-3.663 5.811h-.097l-3.695-5.811h-2.256l4.727 7.272-4.802 7.391h2.127l3.695-5.801h.097l3.663 5.801h2.256l-4.759-7.262 4.866-7.401zM400.312 284.028l5.285-14.663h-2.127l-4.071 12.246h-.065l-4.093-12.246h-2.137l5.274 14.663h1.934zM536.596 284.028v-11.462h.043l7.455 11.462h1.805v-14.663h-1.794v11.451h-.043l-7.455-11.451h-1.805v14.663h1.794zM603.85 284.028v-10.657h.053l4.147 9.432h1.59l4.146-9.432h.065v10.657h1.697v-14.663h-1.826l-4.845 11.333h-.043l-4.855-11.333h-1.827v14.663h1.698zM150.134 216.028l1.482-4.405h5.457l1.483 4.405h1.976l-5.22-14.663H153.4l-5.221 14.663h1.955zm4.243-12.451l2.191 6.532h-4.447l2.202-6.532h.054zM184.092 284.028h10.355v-1.665h-7.981v-.054l7.799-11.645v-1.299h-9.894v1.665h7.573v.053l-7.852 11.623v1.322zM325.203 275.778c0-3.223 1.397-5.038 3.9-5.038 2.062 0 3.48 1.342 3.534 3.297h1.847v-.032c0-2.879-2.266-4.952-5.392-4.952-3.631 0-5.758 2.514-5.758 6.725v1.922c0 4.168 2.127 6.639 5.758 6.639 3.104 0 5.392-1.987 5.392-4.694v-.043h-1.847c-.054 1.815-1.472 3.051-3.534 3.051-2.503 0-3.9-1.784-3.9-4.953v-1.922zM464.054 284.028h5.285c3.158 0 5.124-1.547 5.124-4.104 0-2.052-1.214-3.362-3.18-3.631v-.075c1.493-.473 2.342-1.59 2.342-3.244 0-2.213-1.579-3.609-4.071-3.609h-5.5v14.663zm1.869-13.02h3.33c1.568 0 2.481.838 2.481 2.288 0 1.633-1.106 2.385-3.566 2.385h-2.245v-4.673zm0 6.284h3.534c1.955 0 3.083.967 3.083 2.643 0 1.729-1.171 2.449-4.071 2.449h-2.546v-5.092zM761.941 133.365v14.663h1.869v-5.543h3.469c2.793 0 4.663-1.805 4.663-4.555 0-2.729-1.87-4.565-4.663-4.565h-5.338zm1.869 1.665h3.33c1.826 0 2.879 1.063 2.879 2.9 0 2.406-1.472 2.9-3.986 2.9h-2.223v-5.8zM718.426 214.341h-6.746v-12.976h-1.88v14.663h8.626v-1.687zM570.425 212.665c0 2.149 1.633 3.674 4.114 3.674 2.739 0 4.286-1.665 4.286-4.673v-10.301h-1.88v10.301c0 1.988-.773 2.965-2.406 2.965-1.461 0-2.223-.827-2.277-1.966h-1.837zM440.474 205.833c-.194-2.846-2.331-4.78-5.457-4.78-3.642 0-5.823 2.449-5.823 6.445v2.17c0 4.254 2.052 6.671 5.866 6.671 3.179 0 5.446-2.127 5.446-4.931v-3.018h-5.607v1.633h3.781v1.418c0 1.901-1.461 3.212-3.61 3.212-2.61 0-4.006-1.805-4.006-4.985v-2.17c0-2.997 1.461-4.758 3.953-4.758 2.03 0 3.362 1.16 3.598 3.093h1.859zM289.678 201.365v14.663h4.705c4.254 0 6.445-2.536 6.445-7.337 0-4.813-2.18-7.326-6.445-7.326h-4.705zm1.88 1.675h2.718c3.115 0 4.608 1.912 4.608 5.651 0 3.845-1.568 5.661-4.608 5.661h-2.718V203.04zM169.738 79.38v-.06c0-1.298.928-2.431 2.5-2.431 1.397 0 2.442.879 2.442 2.295 0 1.21-.781 2.139-1.533 2.998l-4.981 5.771v1.075h8.496v-1.495h-6.113v-.029l3.594-4.219c1.299-1.513 2.265-2.607 2.265-4.218 0-2.1-1.631-3.653-4.121-3.653-2.705 0-4.209 1.856-4.209 3.907v.058h1.66zM240.322 82.895h1.358c1.855 0 2.949.967 2.969 2.422.019 1.465-1.055 2.529-2.959 2.529-1.788 0-2.637-1.016-2.813-2.266h-1.601c.078 2.041 1.494 3.74 4.355 3.74 2.773 0 4.795-1.708 4.746-3.994-.049-2.168-1.777-3.134-2.91-3.232v-.03c1.035-.165 2.471-1.357 2.422-3.251-.059-1.914-1.699-3.399-4.199-3.399-2.696 0-4.043 1.865-4.082 3.614h1.63c.088-.997.772-2.149 2.452-2.149 1.503 0 2.461.908 2.47 2.217.01 1.357-1.045 2.314-2.558 2.314h-1.28v1.485zM312.715 75.698c-1.992 2.949-3.975 6.084-5.645 9.101v1.465h6.475v2.764h1.631v-2.764h1.738V84.76h-1.738v-9.063h-2.461zm-3.936 9.062v-.02a114.968 114.968 0 014.737-7.558h.029v7.578h-4.766zM378.393 85.678c.136 1.934 1.64 3.633 4.394 3.633 2.715 0 4.795-1.885 4.795-4.63 0-2.675-2.012-4.472-4.404-4.472-1.426 0-2.539.684-2.871 1.143h-.03l.44-4.18h5.869v-1.494h-7.305l-.732 7.754h1.445c.391-.87 1.28-1.778 2.93-1.778 1.611 0 2.939 1.172 2.939 3.077 0 2.031-1.601 3.105-2.968 3.105-1.534 0-2.647-.752-2.862-2.158h-1.64zM456.24 78.793c-.136-1.611-1.572-3.35-4.033-3.35-2.89 0-5 2.413-5 7.432 0 2.188.488 3.8 1.328 4.854.85 1.054 2.051 1.572 3.477 1.572 2.549 0 4.59-1.69 4.59-4.57 0-2.823-2.188-4.375-4.366-4.375-1.709 0-2.949.986-3.339 1.972h-.03c.108-3.828 1.563-5.42 3.272-5.42 1.553 0 2.324 1.123 2.392 1.885h1.709zm-7.129 6.045c0-1.963 1.368-3.017 2.911-3.017 1.445 0 2.9.966 2.9 3.007 0 2.06-1.416 2.998-2.881 2.998-1.523 0-2.93-1.015-2.93-2.988zM518.029 75.698v1.494h6.827v.029l-5.616 11.807h1.787l5.459-11.768v-1.563h-8.457zM591.856 87.885c-1.729 0-3.038-1.045-3.038-2.549 0-1.523 1.309-2.568 3.038-2.568 1.738 0 3.037 1.045 3.037 2.568 0 1.504-1.299 2.549-3.037 2.549zm0-6.514c-1.455 0-2.53-.937-2.53-2.275 0-1.338 1.075-2.236 2.53-2.236 1.474 0 2.529.898 2.529 2.236s-1.055 2.275-2.529 2.275zm-.039 7.94c2.734 0 4.736-1.612 4.736-3.926 0-2.07-1.563-3.106-2.686-3.379v-.02c.869-.283 2.178-1.22 2.178-3.007 0-2.07-1.768-3.565-4.189-3.565-2.413 0-4.18 1.494-4.18 3.565 0 1.748 1.24 2.705 2.168 3.008v.02c-1.113.272-2.695 1.288-2.695 3.388 0 2.324 1.933 3.916 4.668 3.916z"/>
    <path fill="black" d="M657.363 85.766c.118 1.601 1.485 3.515 4.258 3.515 3.145 0 5-2.666 5-7.177 0-4.834-1.953-6.67-4.883-6.67-2.314 0-4.492 1.68-4.492 4.521 0 2.9 2.061 4.424 4.19 4.424 1.865 0 3.076-.937 3.457-1.973h.068c-.01 3.291-1.152 5.41-3.262 5.41-1.66 0-2.519-1.122-2.627-2.05h-1.709zm7.383-5.791c0 1.738-1.396 2.95-2.959 2.95-1.504 0-2.861-.958-2.861-2.999 0-2.06 1.455-3.027 2.92-3.027 1.582 0 2.9.996 2.9 3.076zM728.848 81.87c0-3.155 1.142-4.962 3.008-4.962 1.855 0 2.998 1.807 2.998 4.961v1.006c0 3.154-1.143 4.942-2.998 4.942-1.866 0-3.008-1.787-3.008-4.942V81.87zm-1.69 1.025c0 3.916 1.66 6.416 4.698 6.416 3.056 0 4.687-2.52 4.687-6.416V81.86c0-3.936-1.641-6.446-4.678-6.446s-4.707 2.52-4.707 6.446v1.035zM804.932 84.31v-1.503h-6.153v1.504h6.153zM875.938 86.166V84.82h-8.164v1.347h8.164zm0-3.574v-1.367h-8.164v1.367h8.164z"/>
    <path fill="black" d="M123.277 26.027V23.44h2.544v-.686h-2.544v-2.039h2.773v-.685h-3.542v5.998h.769zm5.713 0V20.03h-.712a14.75 14.75 0 00-1.477.905v.782a20.102 20.102 0 011.415-.874h.014v5.185h.76zM267.135 26.027V23.44h2.544v-.686h-2.544v-2.039h2.773v-.685h-3.542v5.998h.769zm4.825-2.76h.611c.835 0 1.327.436 1.336 1.09.008.66-.475 1.139-1.332 1.139-.804 0-1.186-.457-1.266-1.02h-.72c.035.919.672 1.683 1.96 1.683 1.248 0 2.157-.769 2.135-1.797a1.46 1.46 0 00-1.309-1.455v-.013c.466-.075 1.112-.61 1.09-1.463-.027-.862-.765-1.53-1.89-1.53-1.213 0-1.819.84-1.837 1.626h.734c.04-.448.347-.966 1.103-.966.677 0 1.107.408 1.112.997.004.61-.47 1.042-1.151 1.042h-.576v.668zM194.586 26.027V23.44h2.545v-.686h-2.545v-2.039h2.773v-.685h-3.542v5.998h.769zm4.294-4.341v-.027c0-.584.417-1.094 1.125-1.094.628 0 1.098.395 1.098 1.033 0 .545-.351.962-.69 1.349l-2.241 2.597v.483h3.823v-.672h-2.751v-.013l1.618-1.899c.584-.68 1.019-1.173 1.019-1.898 0-.945-.734-1.644-1.854-1.644-1.218 0-1.894.835-1.894 1.758v.027h.747zM338.736 26.027V23.44h2.544v-.686h-2.544v-2.039h2.773v-.685h-3.542v5.998h.769zm5.858-5.998c-.897 1.327-1.789 2.738-2.54 4.096v.659h2.913v1.243h.734v-1.243h.782v-.677h-.782v-4.078h-1.107zm-1.771 4.078v-.009a51.85 51.85 0 012.131-3.401h.013v3.41h-2.144zM411.144 26.027V23.44h2.544v-.686h-2.544v-2.039h2.773v-.685h-3.542v5.998h.769zm3.638-1.507c.062.87.739 1.635 1.978 1.635 1.222 0 2.158-.848 2.158-2.083 0-1.204-.906-2.013-1.982-2.013-.642 0-1.143.308-1.292.514h-.013l.197-1.88h2.641v-.673h-3.287l-.329 3.49h.65c.176-.392.576-.8 1.318-.8.726 0 1.323.527 1.323 1.384 0 .914-.721 1.397-1.336 1.397-.69 0-1.191-.338-1.287-.971h-.739zM483.017 26.027V23.44h2.545v-.686h-2.545v-2.039h2.773v-.685h-3.542v5.998h.769zm7.502-4.605c-.062-.725-.708-1.507-1.815-1.507-1.301 0-2.25 1.085-2.25 3.344 0 .984.22 1.71.598 2.184.382.474.922.707 1.564.707 1.147 0 2.065-.76 2.065-2.056 0-1.27-.984-1.969-1.964-1.969-.769 0-1.327.444-1.503.888h-.013c.048-1.723.703-2.44 1.472-2.44.699 0 1.046.506 1.077.849h.769zm-3.208 2.72c0-.883.615-1.358 1.309-1.358.651 0 1.306.435 1.306 1.354 0 .927-.638 1.349-1.297 1.349-.685 0-1.318-.457-1.318-1.345zM556.9 26.027V23.44h2.544v-.686H556.9v-2.039h2.773v-.685h-3.542v5.998h.769zm3.458-5.998v.672h3.072v.013l-2.527 5.313h.805l2.456-5.295v-.703h-3.806zM628.106 26.027V23.44h2.544v-.686h-2.544v-2.039h2.773v-.685h-3.542v5.998h.769zm5.62-.514c-.778 0-1.367-.47-1.367-1.147 0-.685.589-1.156 1.367-1.156.782 0 1.367.47 1.367 1.156 0 .677-.585 1.147-1.367 1.147zm0-2.931c-.655 0-1.138-.422-1.138-1.024 0-.602.483-1.006 1.138-1.006.664 0 1.138.404 1.138 1.006s-.474 1.024-1.138 1.024zm-.017 3.573c1.23 0 2.131-.725 2.131-1.767 0-.932-.703-1.397-1.209-1.52v-.01c.392-.127.98-.548.98-1.353 0-.931-.795-1.604-1.885-1.604-1.085 0-1.881.673-1.881 1.604 0 .787.558 1.218.976 1.354v.009c-.501.123-1.213.58-1.213 1.525 0 1.046.87 1.762 2.101 1.762zM700.927 26.027V23.44h2.544v-.686h-2.544v-2.039h2.772v-.685h-3.542v5.998h.77zm3.506-1.467c.053.72.668 1.582 1.916 1.582 1.415 0 2.25-1.2 2.25-3.23 0-2.176-.879-3.002-2.197-3.002-1.041 0-2.021.756-2.021 2.035 0 1.305.927 1.99 1.885 1.99.839 0 1.384-.421 1.556-.887h.03c-.004 1.48-.518 2.434-1.467 2.434-.748 0-1.134-.505-1.183-.922h-.769zm3.323-2.606c0 .782-.629 1.327-1.332 1.327-.677 0-1.288-.43-1.288-1.35 0-.927.655-1.362 1.314-1.362.712 0 1.306.449 1.306 1.385zM769.924 26.027V23.44h2.545v-.686h-2.545v-2.039h2.773v-.685h-3.542v5.998h.769zm5.713 0V20.03h-.712c-.435.233-1.05.598-1.476.905v.782a19.653 19.653 0 011.415-.874h.013v5.185h.76zm2.052-3.22c0-1.42.514-2.233 1.354-2.233.835 0 1.349.813 1.349 2.232v.453c0 1.42-.514 2.223-1.349 2.223-.84 0-1.354-.804-1.354-2.223v-.453zm-.76.46c0 1.763.747 2.888 2.114 2.888 1.375 0 2.109-1.134 2.109-2.887v-.466c0-1.771-.738-2.9-2.105-2.9-1.366 0-2.118 1.133-2.118 2.9v.466zM843.099 26.027V23.44h2.544v-.686h-2.544v-2.039h2.773v-.685h-3.542v5.998h.769zm5.713 0V20.03h-.712c-.435.233-1.051.598-1.477.905v.782a19.875 19.875 0 011.415-.874h.013v5.185h.761zm3.542 0V20.03h-.712c-.435.233-1.051.598-1.477.905v.782a19.875 19.875 0 011.415-.874h.013v5.185h.761zM915.408 26.027V23.44h2.544v-.686h-2.544v-2.039h2.773v-.685h-3.542v5.998h.769zm5.713 0V20.03h-.712a14.75 14.75 0 00-1.477.905v.782a19.875 19.875 0 011.415-.874h.013v5.185h.761zm2.122-4.341v-.027c0-.584.418-1.094 1.125-1.094.629 0 1.099.395 1.099 1.033 0 .545-.352.962-.69 1.349l-2.241 2.597v.483h3.823v-.672h-2.751v-.013l1.617-1.899c.585-.68 1.02-1.173 1.02-1.898 0-.945-.734-1.644-1.855-1.644-1.217 0-1.894.835-1.894 1.758v.027h.747z"/>
    <path fill="black" fill-rule="evenodd" d="M104.756 11.527a.5.5 0 11.999 0 .5.5 0 01-.999 0zm.5 7.5a2.5 2.5 0 100-5 2.5 2.5 0 000 5zm0 1a3.5 3.5 0 100-7 3.5 3.5 0 000 7zm0 1a.5.5 0 10-.001 1 .5.5 0 00.001-1zm3.182-8.389a.5.5 0 11.707.707.5.5 0 01-.707-.707zm-6.364 7.071a.5.5 0 10-.707.707.5.5 0 00.707-.707zm8.182-3.682a.5.5 0 110 1 .5.5 0 010-1zm-9.5.5a.5.5 0 10-1 0 .5.5 0 001 0zm8.389 3.182a.5.5 0 11-.709.707.5.5 0 01.709-.707zm-7.071-6.364a.5.5 0 10-.708-.707.5.5 0 00.708.707zM177.156 9.527a.5.5 0 111 0v2a.5.5 0 01-1 0v-2zm.5 9.5a2.5 2.5 0 100-5 2.5 2.5 0 000 5zm0 1a3.5 3.5 0 100-7 3.5 3.5 0 000 7zm0 1a.5.5 0 00-.5.5v2a.5.5 0 101 0v-2a.5.5 0 00-.5-.5zm7-5a.5.5 0 010 1h-2a.5.5 0 110-1h2zm-11.5.5a.5.5 0 00-.5-.5h-2a.5.5 0 100 1h2a.5.5 0 00.5-.5zm9.096-5.303a.5.5 0 01.707.707l-1.414 1.414a.5.5 0 01-.707-.707l1.414-1.414zm-7.778 8.485a.5.5 0 00-.707 0l-1.415 1.415a.5.5 0 00.707.707l1.415-1.415a.5.5 0 000-.707zm8.485 1.415a.5.5 0 01-.707.707l-1.414-1.415a.5.5 0 01.707-.707l1.414 1.415zm-8.485-7.779a.5.5 0 000-.707l-1.415-1.414a.5.5 0 10-.707.707l1.414 1.414a.501.501 0 00.708 0z" clip-rule="evenodd"/>
    <path d="M242.056 11.527h7a.5.5 0 01.5.5v3a.5.5 0 01-.5.5h-7a.5.5 0 01-.5-.5v-3a.5.5 0 01.5-.5zm2 7h6a.5.5 0 01.5.5v2a.5.5 0 01-.5.5h-6a.5.5 0 01-.5-.5v-2a.5.5 0 01.5-.5zm10-7h4a.5.5 0 01.5.5v8a.5.5 0 01-.5.5h-4a.5.5 0 01-.5-.5v-8a.5.5 0 01.5-.5zM313.956 11.527h3a.5.5 0 01.5.5v3a.5.5 0 01-.5.5h-3a.5.5 0 01-.5-.5v-3a.5.5 0 01.5-.5zm7 0h3a.5.5 0 01.5.5v3a.5.5 0 01-.5.5h-3a.5.5 0 01-.5-.5v-3a.5.5 0 01.5-.5zm7 0h3a.5.5 0 01.5.5v3a.5.5 0 01-.5.5h-3a.5.5 0 01-.5-.5v-3a.5.5 0 01.5-.5zm-14 6h3a.5.5 0 01.5.5v3a.5.5 0 01-.5.5h-3a.5.5 0 01-.5-.5v-3a.5.5 0 01.5-.5zm7 0h3a.5.5 0 01.5.5v3a.5.5 0 01-.5.5h-3a.5.5 0 01-.5-.5v-3a.5.5 0 01.5-.5zm7 0h3a.5.5 0 01.5.5v3a.5.5 0 01-.5.5h-3a.5.5 0 01-.5-.5v-3a.5.5 0 01.5-.5zM677.356 20.42v-6.391a.5.5 0 01.752-.432l5.112 2.982a.5.5 0 01.025.848l-5.112 3.408a.5.5 0 01-.777-.416zm8 0v-6.391a.5.5 0 01.752-.432l5.112 2.982a.5.5 0 01.025.848l-5.112 3.408a.5.5 0 01-.777-.416zM544.356 13.635v6.39a.5.5 0 01-.752.433l-5.113-2.982a.5.5 0 01-.025-.848l5.112-3.409a.5.5 0 01.778.416zm-8 0v6.39a.5.5 0 01-.752.433l-5.113-2.982a.5.5 0 01-.025-.848l5.112-3.409a.5.5 0 01.778.416zM604.356 20.42v-6.391a.5.5 0 01.752-.432l5.112 2.982a.5.5 0 01.025.848l-5.112 3.408a.5.5 0 01-.777-.416z"/>
    <rect width="1" height="8" x="613.856" y="13.288" fill="black" rx=".5"/>
    <rect width="1" height="8" x="616.856" y="13.288" fill="black" rx=".5"/>
    <path fill="black" d="M902.632 14.475c.475.237 1.224 1.116 1.224 2.552h1c0-1.763-.918-3.018-1.777-3.447l-.447.895zm1.224 2.552c0 1.437-.749 2.316-1.224 2.553l.447.895c.859-.43 1.777-1.684 1.777-3.448h-1zm.735-4.576c.768.48 2.265 2.11 2.265 4.576h1c0-2.868-1.727-4.793-2.735-5.424l-.53.848zm2.265 4.576c0 2.466-1.497 4.096-2.265 4.576l.53.848c1.008-.63 2.735-2.556 2.735-5.424h-1zm.17-6.623c.821.718 2.83 3.08 2.83 6.623h1c0-3.923-2.214-6.539-3.171-7.376l-.659.753zm2.83 6.623c0 3.543-2.009 5.906-2.83 6.624l.659.753c.957-.838 3.171-3.453 3.171-7.377h-1z"/>
    <mask id="a" fill="white">
      <path d="M893.856 14.615h3l2.292-2.293c.63-.63 1.708-.184 1.708.707v8.172c0 .89-1.078 1.337-1.708.707l-2.292-2.293h-3a1 1 0 01-1-1v-3a1 1 0 011-1z"/>
    </mask>
    <path fill="black" d="M896.856 14.615v1h.414l.293-.293-.707-.707zm0 5l.707-.707-.293-.293h-.414v1zm2.292 2.293l-.707.707.707-.707zm0-9.586l.708.707-.708-.707zm-2.292 1.293h-3v2h3v-2zm-5 2v3h2v-3h-2zm2 5h3v-2h-3v2zm2.292-.293l2.293 2.293 1.415-1.414-2.293-2.293-1.415 1.414zm5.708.879v-8.172h-2v8.172h2zm-3.415-9.586l-2.293 2.293 1.415 1.414 2.293-2.293-1.415-1.414zm3.415 1.414c0-1.781-2.155-2.674-3.415-1.414l1.415 1.414h2zm-3.415 9.586c1.26 1.26 3.415.368 3.415-1.414h-2l-1.415 1.414zm-6.585-4a2 2 0 002 2v-2h-2zm2-5a2 2 0 00-2 2h2v-2z" mask="url(#a)"/>
    <g>
      <path fill="black" d="M832.632 14.475c.475.237 1.224 1.116 1.224 2.552h1c0-1.763-.918-3.018-1.777-3.447l-.447.895zm1.224 2.552c0 1.437-.749 2.316-1.224 2.553l.447.895c.859-.43 1.777-1.684 1.777-3.448h-1z"/>
      <mask id="b" fill="white">
        <path d="M823.856 14.615h3l2.292-2.293c.63-.63 1.708-.184 1.708.707v8.172c0 .89-1.078 1.337-1.708.707l-2.292-2.293h-3a1 1 0 01-1-1v-3a1 1 0 011-1z"/>
      </mask>
      <path fill="black" d="M826.856 14.615v1h.414l.293-.293-.707-.707zm0 5l.707-.707-.293-.293h-.414v1zm2.292 2.293l-.707.707.707-.707zm0-9.586l.708.707-.708-.707zm-2.292 1.293h-3v2h3v-2zm-5 2v3h2v-3h-2zm2 5h3v-2h-3v2zm2.292-.293l2.293 2.293 1.415-1.414-2.293-2.293-1.415 1.414zm5.708.879v-8.172h-2v8.172h2zm-3.415-9.586l-2.293 2.293 1.415 1.414 2.293-2.293-1.415-1.414zm3.415 1.414c0-1.781-2.155-2.674-3.415-1.414l1.415 1.414h2zm-3.415 9.586c1.26 1.26 3.415.368 3.415-1.414h-2l-1.415 1.414zm-6.585-4a2 2 0 002 2v-2h-2zm2-5a2 2 0 00-2 2h2v-2z" mask="url(#b)"/>
    </g>
    <g>
      <mask id="c" fill="white">
        <path d="M752.856 14.615h3l2.292-2.293c.63-.63 1.708-.184 1.708.707v8.172c0 .89-1.078 1.337-1.708.707l-2.292-2.293h-3a1 1 0 01-1-1v-3a1 1 0 011-1z"/>
      </mask>
      <path fill="black" d="M755.856 14.615v1h.414l.293-.293-.707-.707zm0 5l.707-.707-.293-.293h-.414v1zm2.292 2.293l-.707.707.707-.707zm0-9.586l.708.707-.708-.707zm-2.292 1.293h-3v2h3v-2zm-5 2v3h2v-3h-2zm2 5h3v-2h-3v2zm2.292-.293l2.293 2.293 1.415-1.414-2.293-2.293-1.415 1.414zm5.708.879v-8.172h-2v8.172h2zm-3.415-9.586l-2.293 2.293 1.415 1.414 2.293-2.293-1.415-1.414zm3.415 1.414c0-1.781-2.155-2.674-3.415-1.414l1.415 1.414h2zm-3.415 9.586c1.26 1.26 3.415.368 3.415-1.414h-2l-1.415 1.414zm-6.585-4a2 2 0 002 2v-2h-2zm2-5a2 2 0 00-2 2h2v-2z" mask="url(#c)"/>
    </g>
    <g>
      <path stroke-linecap="round" stroke-linejoin="round" d="M464.869 21.149h4.256M467.497 13.527v1.811M473.213 15.912l-1.281 1.28M461.084 15.415l1.28 1.281M458.564 21.149h1.811M474.136 21.149h1.811"/>
    </g>
    <g>
      <path stroke-linecap="round" stroke-linejoin="round" d="M393.092 21.642h3.446M395.315 15.527v1.021M399.895 17.756l-.722.722M390.1 17.049l.722.721M388.295 21.642h1.021M400.395 21.642h1.021"/>
    </g>
    <path fill="black" d="M25.629 21.144c1.586 0 2.536-.882 2.81-2.072h-1.17c-.232.67-.779 1.087-1.613 1.087-1.169 0-1.866-.936-1.866-2.303v-.13h4.744v-.67c0-1.976-1.08-3.33-2.96-3.33-1.886 0-2.96 1.354-2.96 3.248v.806c0 2.044 1.142 3.364 3.015 3.364zm-1.839-4.369v-.02c0-1.135.697-2.044 1.791-2.044 1.073 0 1.777.902 1.777 2.044v.02H23.79zm6.228-.875c0 1.3 1.1 1.71 2.44 1.983 1.005.198 1.805.355 1.805 1.169 0 .608-.5 1.128-1.6 1.128-.957 0-1.517-.431-1.62-1.087h-1.148c0 1.292 1.1 2.05 2.68 2.05 1.688 0 2.843-.806 2.843-2.235 0-1.401-1.135-1.764-2.481-2.003-.82-.15-1.77-.321-1.77-1.128 0-.71.614-1.087 1.469-1.087 1.121 0 1.463.643 1.504 1.19h1.093c0-1.19-.868-2.153-2.556-2.153-1.381 0-2.66.656-2.66 2.173zm6.788 1.86c0 1.914 1.073 3.384 2.98 3.384 1.648 0 2.55-.862 2.79-2.092H41.42c-.13.574-.656 1.053-1.552 1.053-1.148 0-1.886-.93-1.886-2.338v-.67c0-1.45.69-2.331 1.88-2.331.779 0 1.346.553 1.503 1.162h1.156c-.062-1.1-1.074-2.201-2.735-2.201-1.873 0-2.98 1.387-2.98 3.322v.71z"/>
    <g>
      <path fill="black" fill-rule="evenodd" d="M977.637 13.429a4.54 4.54 0 11-5.805 0l-.639-.77a5.539 5.539 0 107.084 0l-.64.77z" clip-rule="evenodd"/>
      <path fill="black" d="M974.056 10.706h1v6.223h-1z"/>
    </g>
  </g>
</svg>
