<svg width="1008" height="375" viewBox="0 0 1008 375" fill="none" xmlns="http://www.w3.org/2000/svg">
<rect x="1.35559" y="110.528" width="95" height="59" rx="5.5" stroke="currentColor"/>
<rect x="1.35559" y="178.528" width="113" height="59" rx="5.5" stroke="currentColor"/>
<rect x="1.35559" y="246.528" width="148" height="59" rx="5.5" stroke="currentColor"/>
<rect x="1.35559" y="314.528" width="61" height="59" rx="5.5" stroke="currentColor"/>
<rect x="71.3556" y="314.528" width="61" height="59" rx="5.5" stroke="currentColor"/>
<rect x="281.356" y="42.5276" width="61" height="59" rx="5.5" stroke="currentColor"/>
<rect x="315.356" y="110.528" width="61" height="59" rx="5.5" stroke="currentColor"/>
<rect x="333.356" y="178.528" width="61" height="59" rx="5.5" stroke="currentColor"/>
<rect x="298.356" y="246.528" width="61" height="59" rx="5.5" stroke="currentColor"/>
<rect x="141.356" y="42.5276" width="61" height="59" rx="5.5" stroke="currentColor"/>
<rect x="175.356" y="110.528" width="61" height="59" rx="5.5" stroke="currentColor"/>
<rect x="193.356" y="178.528" width="61" height="59" rx="5.5" stroke="currentColor"/>
<rect x="158.356" y="246.528" width="61" height="59" rx="5.5" stroke="currentColor"/>
<rect x="421.356" y="42.5276" width="61" height="59" rx="5.5" stroke="currentColor"/>
<rect x="455.356" y="110.528" width="61" height="59" rx="5.5" stroke="currentColor"/>
<rect x="473.356" y="178.528" width="61" height="59" rx="5.5" stroke="currentColor"/>
<rect x="438.356" y="246.528" width="61" height="59" rx="5.5" stroke="currentColor"/>
<rect x="701.356" y="42.5276" width="61" height="59" rx="5.5" stroke="currentColor"/>
<rect x="735.356" y="110.528" width="61" height="59" rx="5.5" stroke="currentColor"/>
<rect x="753.356" y="178.528" width="61" height="59" rx="5.5" stroke="currentColor"/>
<rect x="718.356" y="246.528" width="61" height="59" rx="5.5" stroke="currentColor"/>
<rect x="71.3556" y="42.5276" width="61" height="59" rx="5.5" stroke="currentColor"/>
<rect x="105.356" y="110.528" width="61" height="59" rx="5.5" stroke="currentColor"/>
<rect x="123.356" y="178.528" width="61" height="59" rx="5.5" stroke="currentColor"/>
<rect x="141.356" y="314.528" width="61" height="59" rx="5.5" stroke="currentColor"/>
<rect x="211.356" y="314.528" width="78" height="59" rx="5.5" stroke="currentColor"/>
<rect x="351.356" y="42.5276" width="61" height="59" rx="5.5" stroke="currentColor"/>
<rect x="385.356" y="110.528" width="61" height="59" rx="5.5" stroke="currentColor"/>
<rect x="403.356" y="178.528" width="61" height="59" rx="5.5" stroke="currentColor"/>
<rect x="368.356" y="246.528" width="61" height="59" rx="5.5" stroke="currentColor"/>
<rect x="631.356" y="42.5276" width="61" height="59" rx="5.5" stroke="currentColor"/>
<rect x="665.356" y="110.528" width="61" height="59" rx="5.5" stroke="currentColor"/>
<rect x="683.356" y="178.528" width="61" height="59" rx="5.5" stroke="currentColor"/>
<rect x="1.35559" y="42.5276" width="61" height="59" rx="5.5" stroke="currentColor"/>
<rect x="648.356" y="246.528" width="61" height="59" rx="5.5" stroke="currentColor"/>
<rect x="211.356" y="42.5276" width="61" height="59" rx="5.5" stroke="currentColor"/>
<rect x="245.356" y="110.528" width="61" height="59" rx="5.5" stroke="currentColor"/>
<rect x="263.356" y="178.528" width="61" height="59" rx="5.5" stroke="currentColor"/>
<rect x="228.356" y="246.528" width="61" height="59" rx="5.5" stroke="currentColor"/>
<rect x="561.356" y="42.5276" width="61" height="59" rx="5.5" stroke="currentColor"/>
<rect x="595.356" y="110.528" width="61" height="59" rx="5.5" stroke="currentColor"/>
<rect x="613.356" y="178.528" width="61" height="59" rx="5.5" stroke="currentColor"/>
<rect x="578.356" y="246.528" width="61" height="59" rx="5.5" stroke="currentColor"/>
<rect x="841.356" y="42.5276" width="61" height="59" rx="5.5" stroke="currentColor"/>
<rect x="875.356" y="110.528" width="61" height="59" rx="5.5" stroke="currentColor"/>
<rect x="875.356" y="314.528" width="61" height="59" rx="5.5" stroke="currentColor"/>
<path d="M935.856 345.028H875.856" stroke="currentColor"/>
<rect x="893.356" y="178.528" width="114" height="59" rx="5.5" stroke="currentColor"/>
<rect x="858.356" y="246.528" width="149" height="59" rx="5.5" stroke="currentColor"/>
<rect x="945.356" y="110.528" width="62" height="59" rx="5.5" stroke="currentColor"/>
<rect x="945.356" y="345.528" width="62" height="28" rx="5.5" stroke="currentColor"/>
<rect x="911.356" y="42.5276" width="96" height="59" rx="5.5" stroke="currentColor"/>
<rect x="491.356" y="42.5276" width="61" height="59" rx="5.5" stroke="currentColor"/>
<rect x="525.356" y="110.528" width="61" height="59" rx="5.5" stroke="currentColor"/>
<rect x="543.356" y="178.528" width="61" height="59" rx="5.5" stroke="currentColor"/>
<rect x="508.356" y="246.528" width="61" height="59" rx="5.5" stroke="currentColor"/>
<rect x="771.356" y="42.5276" width="61" height="59" rx="5.5" stroke="currentColor"/>
<rect x="805.356" y="110.528" width="61" height="59" rx="5.5" stroke="currentColor"/>
<rect x="805.356" y="345.528" width="61" height="28" rx="5.5" stroke="currentColor"/>
<rect x="823.356" y="178.528" width="61" height="59" rx="5.5" stroke="currentColor"/>
<rect x="788.356" y="246.528" width="61" height="59" rx="5.5" stroke="currentColor"/>
<rect x="735.356" y="314.528" width="61" height="59" rx="5.5" stroke="currentColor"/>
<rect x="648.356" y="314.528" width="78" height="59" rx="5.5" stroke="currentColor"/>
<rect x="298.356" y="314.528" width="341" height="59" rx="5.5" stroke="currentColor"/>
<rect x="1.35559" y="0.527344" width="63" height="33" rx="5.5" stroke="currentColor"/>
<rect x="73.7556" y="0.527344" width="63" height="33" rx="5.5" stroke="currentColor"/>
<rect x="146.156" y="0.527344" width="63" height="33" rx="5.5" stroke="currentColor"/>
<rect x="218.556" y="0.527344" width="63" height="33" rx="5.5" stroke="currentColor"/>
<rect x="290.956" y="0.527344" width="63" height="33" rx="5.5" stroke="currentColor"/>
<rect x="363.356" y="0.527344" width="63" height="33" rx="5.5" stroke="currentColor"/>
<rect x="435.756" y="0.527344" width="63" height="33" rx="5.5" stroke="currentColor"/>
<rect x="508.156" y="0.527344" width="63" height="33" rx="5.5" stroke="currentColor"/>
<rect x="580.556" y="0.527344" width="63" height="33" rx="5.5" stroke="currentColor"/>
<rect x="652.956" y="0.527344" width="63" height="33" rx="5.5" stroke="currentColor"/>
<rect x="725.356" y="0.527344" width="63" height="33" rx="5.5" stroke="currentColor"/>
<rect x="797.756" y="0.527344" width="63" height="33" rx="5.5" stroke="currentColor"/>
<rect x="870.156" y="0.527344" width="63" height="33" rx="5.5" stroke="currentColor"/>
<rect x="942.356" y="0.527344" width="65" height="33" rx="5.5" stroke="currentColor"/>
<text fill="currentColor" xml:space="preserve" style="white-space: pre" font-family="SF Compact Display" font-size="14" letter-spacing="0em"><tspan x="11.8556" y="157.504">tab</tspan></text>
<text fill="currentColor" xml:space="preserve" style="white-space: pre" font-family="SF Compact Display" font-size="14" letter-spacing="0em"><tspan x="11.8556" y="225.504">caps lock</tspan></text>
<circle cx="14.3556" cy="192.528" r="2.5" fill="currentColor"/>
<text fill="currentColor" xml:space="preserve" style="white-space: pre" font-family="SF Compact Display" font-size="14" letter-spacing="0em"><tspan x="11.8556" y="293.504">shift</tspan></text>
<text fill="currentColor" xml:space="preserve" style="white-space: pre" font-family="SF Compact Display" font-size="14" letter-spacing="0em"><tspan x="11.8556" y="361.504">fn</tspan></text>
<text fill="currentColor" xml:space="preserve" style="white-space: pre" font-family="SF Compact Display" font-size="14" letter-spacing="0em"><tspan x="80.5157" y="361.504">control</tspan></text>
<text fill="currentColor" xml:space="preserve" style="white-space: pre" font-family="SF Compact Display" font-size="14" letter-spacing="0em"><tspan x="657.856" y="361.504">command</tspan></text>
<text fill="currentColor" xml:space="preserve" style="white-space: pre" font-family="SF Compact Display" font-size="14" letter-spacing="0em"><tspan x="745.856" y="361.504">option</tspan></text>
<path d="M909.856 332.028H902.856L906.356 324.028L909.856 332.028Z" fill="currentColor"/>
<path d="M901.856 356.028L908.856 356.028L905.356 364.028L901.856 356.028Z" fill="currentColor"/>
<path d="M839.856 356.028L839.856 363.028L831.856 359.528L839.856 356.028Z" fill="currentColor"/>
<path d="M972.856 363.028L972.856 356.028L980.856 359.528L972.856 363.028Z" fill="currentColor"/>
<text fill="currentColor" xml:space="preserve" style="white-space: pre" font-family="SF Compact Display" font-size="14" letter-spacing="0em"><tspan x="154.399" y="361.504">option</tspan></text>
<text fill="currentColor" xml:space="preserve" style="white-space: pre" font-family="SF Compact Display" font-size="14" letter-spacing="0em"><tspan x="219.291" y="361.504">command</tspan></text>
<text fill="currentColor" xml:space="preserve" style="white-space: pre" font-family="SF Compact Display" font-size="14" letter-spacing="0em"><tspan x="958.574" y="89.5042">delete</tspan></text>
<text fill="currentColor" xml:space="preserve" style="white-space: pre" font-family="SF Compact Display" font-size="14" letter-spacing="0em"><tspan x="959.299" y="225.504">return</tspan></text>
<text fill="currentColor" xml:space="preserve" style="white-space: pre" font-family="SF Compact Display" font-size="14" letter-spacing="0em"><tspan x="969.225" y="293.504">shift</tspan></text>
<path d="M661.734 330.279V332.446H660.812C659.779 332.446 658.939 333.252 658.939 334.291C658.939 335.33 659.779 336.171 660.812 336.171C661.844 336.171 662.685 335.33 662.685 334.291V333.375H664.811V334.291C664.811 335.33 665.651 336.171 666.684 336.171C667.716 336.171 668.557 335.33 668.557 334.291C668.557 333.252 667.716 332.446 666.684 332.446H665.754V330.279H666.684C667.716 330.279 668.557 329.472 668.557 328.433C668.557 327.394 667.716 326.553 666.684 326.553C665.651 326.553 664.811 327.394 664.811 328.433V329.356H662.685V328.433C662.685 327.394 661.844 326.553 660.812 326.553C659.779 326.553 658.939 327.394 658.939 328.433C658.939 329.472 659.779 330.279 660.812 330.279H661.734ZM660.818 329.363C660.306 329.363 659.889 328.946 659.889 328.433C659.889 327.92 660.306 327.503 660.812 327.503C661.318 327.503 661.734 327.92 661.734 328.44V329.363H660.818ZM666.677 329.363H665.754V328.44C665.754 327.92 666.178 327.503 666.684 327.503C667.19 327.503 667.607 327.92 667.607 328.433C667.607 328.946 667.19 329.363 666.677 329.363ZM662.685 332.452V330.272H664.811V332.452H662.685ZM660.818 333.355H661.734V334.284C661.734 334.797 661.318 335.214 660.812 335.214C660.306 335.214 659.889 334.797 659.889 334.284C659.889 333.772 660.306 333.355 660.818 333.355ZM666.677 333.355C667.19 333.355 667.607 333.772 667.607 334.284C667.607 334.797 667.19 335.214 666.684 335.214C666.178 335.214 665.754 334.797 665.754 334.284V333.355H666.677Z" fill="currentColor"/>
<path d="M749.843 327.028H747.437C747.115 327.028 746.856 327.274 746.856 327.588C746.856 327.903 747.115 328.142 747.437 328.142H749.576C749.747 328.142 749.863 328.217 749.939 328.374L753.179 335.634C753.391 336.106 753.719 336.318 754.225 336.318H756.638C756.959 336.318 757.219 336.065 757.219 335.757C757.219 335.449 756.959 335.203 756.638 335.203H754.512C754.314 335.203 754.197 335.128 754.122 334.971L750.896 327.718C750.704 327.287 750.321 327.028 749.843 327.028ZM756.638 327.028H753.527C753.199 327.028 752.953 327.267 752.953 327.581C752.953 327.896 753.199 328.135 753.527 328.135H756.638C756.966 328.135 757.219 327.896 757.219 327.581C757.219 327.267 756.966 327.028 756.638 327.028Z" fill="currentColor"/>
<path d="M185.434 327.028H183.027C182.706 327.028 182.446 327.274 182.446 327.588C182.446 327.903 182.706 328.142 183.027 328.142H185.167C185.338 328.142 185.454 328.217 185.529 328.374L188.77 335.634C188.982 336.106 189.31 336.318 189.816 336.318H192.229C192.55 336.318 192.81 336.065 192.81 335.757C192.81 335.449 192.55 335.203 192.229 335.203H190.103C189.904 335.203 189.788 335.128 189.713 334.971L186.486 327.718C186.295 327.287 185.912 327.028 185.434 327.028ZM192.229 327.028H189.118C188.79 327.028 188.544 327.267 188.544 327.581C188.544 327.896 188.79 328.135 189.118 328.135H192.229C192.557 328.135 192.81 327.896 192.81 327.581C192.81 327.267 192.557 327.028 192.229 327.028Z" fill="currentColor"/>
<path d="M113.656 330.723C113.547 330.832 113.485 330.969 113.485 331.126C113.485 331.454 113.738 331.7 114.06 331.7C114.224 331.7 114.36 331.639 114.47 331.536L118.025 327.961L121.572 331.536C121.682 331.639 121.825 331.7 121.983 331.7C122.311 331.7 122.557 331.454 122.557 331.126C122.557 330.969 122.495 330.832 122.393 330.723L118.442 326.751C118.332 326.628 118.182 326.567 118.025 326.567C117.86 326.567 117.724 326.628 117.601 326.751L113.656 330.723Z" fill="currentColor"/>
<path d="M272.734 330.279V332.446H271.812C270.779 332.446 269.939 333.252 269.939 334.291C269.939 335.33 270.779 336.171 271.812 336.171C272.844 336.171 273.685 335.33 273.685 334.291V333.375H275.811V334.291C275.811 335.33 276.651 336.171 277.684 336.171C278.716 336.171 279.557 335.33 279.557 334.291C279.557 333.252 278.716 332.446 277.684 332.446H276.754V330.279H277.684C278.716 330.279 279.557 329.472 279.557 328.433C279.557 327.394 278.716 326.553 277.684 326.553C276.651 326.553 275.811 327.394 275.811 328.433V329.356H273.685V328.433C273.685 327.394 272.844 326.553 271.812 326.553C270.779 326.553 269.939 327.394 269.939 328.433C269.939 329.472 270.779 330.279 271.812 330.279H272.734ZM271.818 329.363C271.306 329.363 270.889 328.946 270.889 328.433C270.889 327.92 271.306 327.503 271.812 327.503C272.318 327.503 272.734 327.92 272.734 328.44V329.363H271.818ZM277.677 329.363H276.754V328.44C276.754 327.92 277.178 327.503 277.684 327.503C278.19 327.503 278.607 327.92 278.607 328.433C278.607 328.946 278.19 329.363 277.677 329.363ZM273.685 332.452V330.272H275.811V332.452H273.685ZM271.818 333.355H272.734V334.284C272.734 334.797 272.318 335.214 271.812 335.214C271.306 335.214 270.889 334.797 270.889 334.284C270.889 333.772 271.306 333.355 271.818 333.355ZM277.677 333.355C278.19 333.355 278.607 333.772 278.607 334.284C278.607 334.797 278.19 335.214 277.684 335.214C277.178 335.214 276.754 334.797 276.754 334.284V333.355H277.677Z" fill="currentColor"/>
<text fill="currentColor" xml:space="preserve" style="white-space: pre" font-family="SF Compact Display" font-size="18" letter-spacing="0em"><tspan x="100.079" y="63.926">!</tspan></text>
<text fill="currentColor" xml:space="preserve" style="white-space: pre" font-family="SF Compact Display" font-size="18" letter-spacing="0em"><tspan x="165.017" y="63.926">@</tspan></text>
<text fill="currentColor" xml:space="preserve" style="white-space: pre" font-family="SF Compact Display" font-size="18" letter-spacing="0em"><tspan x="237.126" y="63.926">#</tspan></text>
<text fill="currentColor" xml:space="preserve" style="white-space: pre" font-family="SF Compact Display" font-size="18" letter-spacing="0em"><tspan x="307.355" y="63.926">$</tspan></text>
<text fill="currentColor" xml:space="preserve" style="white-space: pre" font-family="SF Compact Display" font-size="18" letter-spacing="0em"><tspan x="377.203" y="63.926">%</tspan></text>
<text fill="currentColor" xml:space="preserve" style="white-space: pre" font-family="SF Compact Display" font-size="18" letter-spacing="0em"><tspan x="449.025" y="63.926">^</tspan></text>
<text fill="currentColor" xml:space="preserve" style="white-space: pre" font-family="SF Compact Display" font-size="18" letter-spacing="0em"><tspan x="516.143" y="63.926">&#38;</tspan></text>
<text fill="currentColor" xml:space="preserve" style="white-space: pre" font-family="SF Compact Display" font-size="18" letter-spacing="0em"><tspan x="588.269" y="63.926">*</tspan></text>
<text opacity="0.9" fill="currentColor" xml:space="preserve" style="white-space: pre" font-family="SF Compact Display" font-size="18" letter-spacing="0em"><tspan x="658.911" y="63.926">(</tspan></text>
<text opacity="0.9" fill="currentColor" xml:space="preserve" style="white-space: pre" font-family="SF Compact Display" font-size="18" letter-spacing="0em"><tspan x="728.911" y="63.926">)</tspan></text>
<text opacity="0.9" fill="currentColor" xml:space="preserve" style="white-space: pre" font-family="SF Compact Display" font-size="18" letter-spacing="0em"><tspan x="797.355" y="63.926">&#x2012;</tspan></text>
<text opacity="0.9" fill="currentColor" xml:space="preserve" style="white-space: pre" font-family="SF Compact Display" font-size="18" letter-spacing="0em"><tspan x="832.911" y="131.926">{</tspan></text>
<text opacity="0.9" fill="currentColor" xml:space="preserve" style="white-space: pre" font-family="SF Compact Display" font-size="18" letter-spacing="0em"><tspan x="850.278" y="199.926">&#x201d;</tspan></text>
<text opacity="0.9" fill="currentColor" xml:space="preserve" style="white-space: pre" font-family="SF Compact Display" font-size="18" letter-spacing="0em"><tspan x="782.044" y="199.926">:</tspan></text>
<text opacity="0.9" fill="currentColor" xml:space="preserve" style="white-space: pre" font-family="SF Compact Display" font-size="18" letter-spacing="0em"><tspan x="674.355" y="267.926">&#60;</tspan></text>
<text opacity="0.9" fill="currentColor" xml:space="preserve" style="white-space: pre" font-family="SF Compact Display" font-size="18" letter-spacing="0em"><tspan x="744.355" y="267.926">&#62;</tspan></text>
<text opacity="0.9" fill="currentColor" xml:space="preserve" style="white-space: pre" font-family="SF Compact Display" font-size="18" letter-spacing="0em"><tspan x="815.19" y="267.926">?</tspan></text>
<text opacity="0.9" fill="currentColor" xml:space="preserve" style="white-space: pre" font-family="SF Compact Display" font-size="18" letter-spacing="0em"><tspan x="902.911" y="131.926">}</tspan></text>
<text opacity="0.9" fill="currentColor" xml:space="preserve" style="white-space: pre" font-family="SF Compact Display" font-size="18" letter-spacing="0em"><tspan x="973.911" y="131.926">|</tspan></text>
<text opacity="0.9" fill="currentColor" xml:space="preserve" style="white-space: pre" font-family="SF Compact Display" font-size="18" letter-spacing="0em"><tspan x="832.911" y="156.926">[</tspan></text>
<text opacity="0.9" fill="currentColor" xml:space="preserve" style="white-space: pre" font-family="SF Compact Display" font-size="18" letter-spacing="0em"><tspan x="852.264" y="222.926">&#x2018;</tspan></text>
<text opacity="0.9" fill="currentColor" xml:space="preserve" style="white-space: pre" font-family="SF Compact Display" font-size="18" letter-spacing="0em"><tspan x="782.035" y="224.926">;</tspan></text>
<text opacity="0.9" fill="currentColor" xml:space="preserve" style="white-space: pre" font-family="SF Compact Display" font-size="18" letter-spacing="0em"><tspan x="676.966" y="290.926">,</tspan></text>
<text opacity="0.9" fill="currentColor" xml:space="preserve" style="white-space: pre" font-family="SF Compact Display" font-size="18" letter-spacing="0em"><tspan x="747.237" y="290.926">.</tspan></text>
<text opacity="0.9" fill="currentColor" xml:space="preserve" style="white-space: pre" font-family="SF Compact Display" font-size="18" letter-spacing="0em"><tspan x="815.911" y="290.926">/</tspan></text>
<text opacity="0.9" fill="currentColor" xml:space="preserve" style="white-space: pre" font-family="SF Compact Display" font-size="18" letter-spacing="0em"><tspan x="902.911" y="156.926">]</tspan></text>
<text opacity="0.9" fill="currentColor" xml:space="preserve" style="white-space: pre" font-family="SF Compact Display" font-size="18" letter-spacing="0em"><tspan x="973.911" y="156.926">\</tspan></text>
<text opacity="0.9" fill="currentColor" xml:space="preserve" style="white-space: pre" font-family="SF Compact Display" font-size="18" letter-spacing="0em"><tspan x="867.355" y="63.926">+</tspan></text>
<text fill="currentColor" xml:space="preserve" style="white-space: pre" font-family="SF Compact Display" font-size="18" letter-spacing="0em"><tspan x="26.9601" y="63.926">~</tspan></text>
<text fill="currentColor" xml:space="preserve" style="white-space: pre" font-family="SF Compact Display" font-size="20" letter-spacing="0em"><tspan x="27.2365" y="89.137">`</tspan></text>
<text fill="currentColor" xml:space="preserve" style="white-space: pre" font-family="SF Compact Display" font-size="20" letter-spacing="0em"><tspan x="97.92" y="89.137">1</tspan></text>
<text fill="currentColor" xml:space="preserve" style="white-space: pre" font-family="SF Compact Display" font-size="22" letter-spacing="0em"><tspan x="130.298" y="147.848">Q</tspan></text>
<text fill="currentColor" xml:space="preserve" style="white-space: pre" font-family="SF Compact Display" font-size="22" letter-spacing="0em"><tspan x="196.875" y="147.848">W</tspan></text>
<text fill="currentColor" xml:space="preserve" style="white-space: pre" font-family="SF Compact Display" font-size="22" letter-spacing="0em"><tspan x="269.958" y="147.848">E</tspan></text>
<text fill="currentColor" xml:space="preserve" style="white-space: pre" font-family="SF Compact Display" font-size="22" letter-spacing="0em"><tspan x="339.335" y="147.848">R</tspan></text>
<text fill="currentColor" xml:space="preserve" style="white-space: pre" font-family="SF Compact Display" font-size="22" letter-spacing="0em"><tspan x="410.248" y="147.848">T</tspan></text>
<text fill="currentColor" xml:space="preserve" style="white-space: pre" font-family="SF Compact Display" font-size="22" letter-spacing="0em"><tspan x="480.012" y="147.848">Y</tspan></text>
<text fill="currentColor" xml:space="preserve" style="white-space: pre" font-family="SF Compact Display" font-size="22" letter-spacing="0em"><tspan x="549.201" y="147.848">U</tspan></text>
<text fill="currentColor" xml:space="preserve" style="white-space: pre" font-family="SF Compact Display" font-size="22" letter-spacing="0em"><tspan x="623.159" y="147.848">I</tspan></text>
<text fill="currentColor" xml:space="preserve" style="white-space: pre" font-family="SF Compact Display" font-size="22" letter-spacing="0em"><tspan x="689.298" y="147.848">O</tspan></text>
<text fill="currentColor" xml:space="preserve" style="white-space: pre" font-family="SF Compact Display" font-size="22" letter-spacing="0em"><tspan x="636.985" y="215.848">K</tspan></text>
<text fill="currentColor" xml:space="preserve" style="white-space: pre" font-family="SF Compact Display" font-size="22" letter-spacing="0em"><tspan x="498.029" y="215.848">H</tspan></text>
<text fill="currentColor" xml:space="preserve" style="white-space: pre" font-family="SF Compact Display" font-size="22" letter-spacing="0em"><tspan x="359.323" y="215.848">F</tspan></text>
<text fill="currentColor" xml:space="preserve" style="white-space: pre" font-family="SF Compact Display" font-size="22" letter-spacing="0em"><tspan x="218.147" y="215.848">S</tspan></text>
<text fill="currentColor" xml:space="preserve" style="white-space: pre" font-family="SF Compact Display" font-size="22" letter-spacing="0em"><tspan x="253.318" y="283.848">X</tspan></text>
<text fill="currentColor" xml:space="preserve" style="white-space: pre" font-family="SF Compact Display" font-size="22" letter-spacing="0em"><tspan x="392.921" y="283.848">V</tspan></text>
<text fill="currentColor" xml:space="preserve" style="white-space: pre" font-family="SF Compact Display" font-size="22" letter-spacing="0em"><tspan x="533.04" y="283.848">N</tspan></text>
<text fill="currentColor" xml:space="preserve" style="white-space: pre" font-family="SF Compact Display" font-size="22" letter-spacing="0em"><tspan x="600.337" y="283.848">M</tspan></text>
<text fill="currentColor" xml:space="preserve" style="white-space: pre" font-family="SF Compact Display" font-size="22" letter-spacing="0em"><tspan x="147.91" y="215.848">A</tspan></text>
<text fill="currentColor" xml:space="preserve" style="white-space: pre" font-family="SF Compact Display" font-size="22" letter-spacing="0em"><tspan x="183.2" y="283.848">Z</tspan></text>
<text fill="currentColor" xml:space="preserve" style="white-space: pre" font-family="SF Compact Display" font-size="22" letter-spacing="0em"><tspan x="322.152" y="283.848">C</tspan></text>
<text fill="currentColor" xml:space="preserve" style="white-space: pre" font-family="SF Compact Display" font-size="22" letter-spacing="0em"><tspan x="462.292" y="283.848">B</tspan></text>
<text fill="currentColor" xml:space="preserve" style="white-space: pre" font-family="SF Compact Display" font-size="22" letter-spacing="0em"><tspan x="760.179" y="147.848">P</tspan></text>
<text fill="currentColor" xml:space="preserve" style="white-space: pre" font-family="SF Compact Display" font-size="22" letter-spacing="0em"><tspan x="708.038" y="215.848">L</tspan></text>
<text fill="currentColor" xml:space="preserve" style="white-space: pre" font-family="SF Compact Display" font-size="22" letter-spacing="0em"><tspan x="570.167" y="215.848">J</tspan></text>
<text fill="currentColor" xml:space="preserve" style="white-space: pre" font-family="SF Compact Display" font-size="22" letter-spacing="0em"><tspan x="428.013" y="215.848">G</tspan></text>
<text fill="currentColor" xml:space="preserve" style="white-space: pre" font-family="SF Compact Display" font-size="22" letter-spacing="0em"><tspan x="287.916" y="215.848">D</tspan></text>
<text fill="currentColor" xml:space="preserve" style="white-space: pre" font-family="SF Compact Display" font-size="20" letter-spacing="0em"><tspan x="166.945" y="89.137">2</tspan></text>
<text fill="currentColor" xml:space="preserve" style="white-space: pre" font-family="SF Compact Display" font-size="20" letter-spacing="0em"><tspan x="236.348" y="89.137">3</tspan></text>
<text fill="currentColor" xml:space="preserve" style="white-space: pre" font-family="SF Compact Display" font-size="20" letter-spacing="0em"><tspan x="306.172" y="89.137">4</tspan></text>
<text fill="currentColor" xml:space="preserve" style="white-space: pre" font-family="SF Compact Display" font-size="20" letter-spacing="0em"><tspan x="377.055" y="89.137">5</tspan></text>
<text fill="currentColor" xml:space="preserve" style="white-space: pre" font-family="SF Compact Display" font-size="20" letter-spacing="0em"><tspan x="446.318" y="89.137">6</tspan></text>
<text fill="currentColor" xml:space="preserve" style="white-space: pre" font-family="SF Compact Display" font-size="20" letter-spacing="0em"><tspan x="517.092" y="89.137">7</tspan></text>
<text fill="currentColor" xml:space="preserve" style="white-space: pre" font-family="SF Compact Display" font-size="20" letter-spacing="0em"><tspan x="586.113" y="89.137">8</tspan></text>
<text opacity="0.9" fill="currentColor" xml:space="preserve" style="white-space: pre" font-family="SF Compact Display" font-size="20" letter-spacing="0em"><tspan x="656.318" y="89.137">9</tspan></text>
<text opacity="0.9" fill="currentColor" xml:space="preserve" style="white-space: pre" font-family="SF Compact Display" font-size="20" letter-spacing="0em"><tspan x="726.211" y="89.137">0</tspan></text>
<text opacity="0.9" fill="currentColor" xml:space="preserve" style="white-space: pre" font-family="SF Compact Display" font-size="20" letter-spacing="0em"><tspan x="798.018" y="89.137">-</tspan></text>
<text opacity="0.9" fill="currentColor" xml:space="preserve" style="white-space: pre" font-family="SF Compact Display" font-size="20" letter-spacing="0em"><tspan x="866.299" y="89.137">=</tspan></text>
<text fill="currentColor" xml:space="preserve" style="white-space: pre" font-family="SF Compact Display" font-size="9" letter-spacing="0em"><tspan x="121.787" y="25.7266">F1</tspan></text>
<text fill="currentColor" xml:space="preserve" style="white-space: pre" font-family="SF Compact Display" font-size="9" letter-spacing="0em"><tspan x="265.645" y="25.7266">F3</tspan></text>
<text fill="currentColor" xml:space="preserve" style="white-space: pre" font-family="SF Compact Display" font-size="9" letter-spacing="0em"><tspan x="193.096" y="25.7266">F2</tspan></text>
<text fill="currentColor" xml:space="preserve" style="white-space: pre" font-family="SF Compact Display" font-size="9" letter-spacing="0em"><tspan x="337.246" y="25.7266">F4</tspan></text>
<text fill="currentColor" xml:space="preserve" style="white-space: pre" font-family="SF Compact Display" font-size="9" letter-spacing="0em"><tspan x="409.654" y="25.7266">F5</tspan></text>
<text fill="currentColor" xml:space="preserve" style="white-space: pre" font-family="SF Compact Display" font-size="9" letter-spacing="0em"><tspan x="481.528" y="25.7266">F6</tspan></text>
<text fill="currentColor" xml:space="preserve" style="white-space: pre" font-family="SF Compact Display" font-size="9" letter-spacing="0em"><tspan x="555.41" y="25.7266">F7</tspan></text>
<text fill="currentColor" xml:space="preserve" style="white-space: pre" font-family="SF Compact Display" font-size="9" letter-spacing="0em"><tspan x="626.616" y="25.7266">F8</tspan></text>
<text fill="currentColor" xml:space="preserve" style="white-space: pre" font-family="SF Compact Display" font-size="9" letter-spacing="0em"><tspan x="699.437" y="25.7266">F9</tspan></text>
<text fill="currentColor" xml:space="preserve" style="white-space: pre" font-family="SF Compact Display" font-size="9" letter-spacing="0em"><tspan x="768.434" y="25.7266">F10</tspan></text>
<text fill="currentColor" xml:space="preserve" style="white-space: pre" font-family="SF Compact Display" font-size="9" letter-spacing="0em"><tspan x="841.609" y="25.7266">F11</tspan></text>
<text fill="currentColor" xml:space="preserve" style="white-space: pre" font-family="SF Compact Display" font-size="9" letter-spacing="0em"><tspan x="913.918" y="25.7266">F12</tspan></text>
<path fill-rule="evenodd" clip-rule="evenodd" d="M104.756 11.5273C104.756 11.2512 104.979 11.0273 105.256 11.0273C105.532 11.0273 105.756 11.2512 105.756 11.5273C105.756 11.8035 105.532 12.0273 105.256 12.0273C104.979 12.0273 104.756 11.8035 104.756 11.5273ZM105.256 19.0273C106.636 19.0273 107.756 17.9081 107.756 16.5273C107.756 15.1466 106.636 14.0273 105.256 14.0273C103.875 14.0273 102.756 15.1466 102.756 16.5273C102.756 17.9081 103.875 19.0273 105.256 19.0273ZM105.256 20.0273C107.189 20.0273 108.756 18.4603 108.756 16.5273C108.756 14.5943 107.189 13.0273 105.256 13.0273C103.323 13.0273 101.756 14.5943 101.756 16.5273C101.756 18.4603 103.323 20.0273 105.256 20.0273ZM105.256 21.0273C104.979 21.0273 104.756 21.2512 104.756 21.5273C104.756 21.8035 104.979 22.0273 105.256 22.0273C105.532 22.0273 105.756 21.8035 105.756 21.5273C105.756 21.2512 105.532 21.0273 105.256 21.0273ZM108.438 12.6383C108.633 12.443 108.949 12.443 109.145 12.6383C109.34 12.8335 109.34 13.1501 109.145 13.3454C108.949 13.5406 108.633 13.5406 108.438 13.3454C108.242 13.1501 108.242 12.8335 108.438 12.6383ZM102.074 19.7093C101.878 19.5141 101.562 19.5141 101.367 19.7093C101.171 19.9046 101.171 20.2212 101.367 20.4164C101.562 20.6117 101.878 20.6117 102.074 20.4164C102.269 20.2212 102.269 19.9046 102.074 19.7093ZM110.256 16.0274C110.532 16.0274 110.756 16.2512 110.756 16.5274C110.756 16.8035 110.532 17.0274 110.256 17.0274C109.979 17.0274 109.756 16.8035 109.756 16.5274C109.756 16.2512 109.979 16.0274 110.256 16.0274ZM100.756 16.5274C100.756 16.2512 100.532 16.0274 100.256 16.0274C99.9795 16.0274 99.7556 16.2512 99.7556 16.5274C99.7556 16.8035 99.9795 17.0274 100.256 17.0274C100.532 17.0274 100.756 16.8035 100.756 16.5274ZM109.145 19.7093C109.34 19.9046 109.34 20.2212 109.145 20.4165C108.949 20.6117 108.633 20.6117 108.438 20.4165C108.242 20.2212 108.242 19.9046 108.438 19.7093C108.633 19.5141 108.949 19.5141 109.145 19.7093ZM102.074 13.3454C102.269 13.1501 102.269 12.8336 102.074 12.6383C101.878 12.443 101.562 12.443 101.367 12.6383C101.171 12.8336 101.171 13.1501 101.367 13.3454C101.562 13.5407 101.878 13.5407 102.074 13.3454Z" fill="currentColor"/>
<path fill-rule="evenodd" clip-rule="evenodd" d="M177.156 9.52734C177.156 9.2512 177.379 9.02734 177.656 9.02734C177.932 9.02734 178.156 9.2512 178.156 9.52734V11.5273C178.156 11.8035 177.932 12.0273 177.656 12.0273C177.379 12.0273 177.156 11.8035 177.156 11.5273V9.52734ZM177.656 19.0273C179.036 19.0273 180.156 17.9081 180.156 16.5273C180.156 15.1466 179.036 14.0273 177.656 14.0273C176.275 14.0273 175.156 15.1466 175.156 16.5273C175.156 17.9081 176.275 19.0273 177.656 19.0273ZM177.656 20.0273C179.589 20.0273 181.156 18.4603 181.156 16.5273C181.156 14.5943 179.589 13.0273 177.656 13.0273C175.723 13.0273 174.156 14.5943 174.156 16.5273C174.156 18.4603 175.723 20.0273 177.656 20.0273ZM177.656 21.0273C177.379 21.0273 177.156 21.2512 177.156 21.5273V23.5273C177.156 23.8035 177.379 24.0273 177.656 24.0273C177.932 24.0273 178.156 23.8035 178.156 23.5273V21.5273C178.156 21.2512 177.932 21.0273 177.656 21.0273ZM184.656 16.0273C184.932 16.0273 185.156 16.2512 185.156 16.5273C185.156 16.8035 184.932 17.0273 184.656 17.0273H182.656C182.379 17.0273 182.156 16.8035 182.156 16.5273C182.156 16.2512 182.379 16.0273 182.656 16.0273H184.656ZM173.156 16.5273C173.156 16.2512 172.932 16.0273 172.656 16.0273H170.656C170.379 16.0273 170.156 16.2512 170.156 16.5273C170.156 16.8035 170.379 17.0273 170.656 17.0273H172.656C172.932 17.0273 173.156 16.8035 173.156 16.5273ZM182.252 11.224C182.447 11.0288 182.764 11.0288 182.959 11.224C183.154 11.4193 183.154 11.7359 182.959 11.9311L181.545 13.3454C181.349 13.5406 181.033 13.5406 180.838 13.3454C180.642 13.1501 180.642 12.8335 180.838 12.6383L182.252 11.224ZM174.474 19.7093C174.278 19.5141 173.962 19.5141 173.767 19.7093L172.352 21.1235C172.157 21.3188 172.157 21.6354 172.352 21.8306C172.548 22.0259 172.864 22.0259 173.059 21.8306L174.474 20.4164C174.669 20.2212 174.669 19.9046 174.474 19.7093ZM182.959 21.1235C183.154 21.3188 183.154 21.6354 182.959 21.8306C182.764 22.0259 182.447 22.0259 182.252 21.8306L180.838 20.4164C180.642 20.2212 180.642 19.9046 180.838 19.7093C181.033 19.5141 181.349 19.5141 181.545 19.7093L182.959 21.1235ZM174.474 13.3454C174.669 13.1501 174.669 12.8336 174.474 12.6383L173.059 11.2241C172.864 11.0288 172.548 11.0288 172.352 11.2241C172.157 11.4193 172.157 11.7359 172.352 11.9312L173.766 13.3454C173.962 13.5407 174.278 13.5407 174.474 13.3454Z" fill="currentColor"/>
<path d="M241.556 12.0273C241.556 11.7512 241.78 11.5273 242.056 11.5273H249.056C249.332 11.5273 249.556 11.7512 249.556 12.0273V15.0273C249.556 15.3035 249.332 15.5273 249.056 15.5273H242.056C241.78 15.5273 241.556 15.3035 241.556 15.0273V12.0273ZM243.556 19.0273C243.556 18.7512 243.78 18.5273 244.056 18.5273H250.056C250.332 18.5273 250.556 18.7512 250.556 19.0273V21.0273C250.556 21.3035 250.332 21.5273 250.056 21.5273H244.056C243.78 21.5273 243.556 21.3035 243.556 21.0273V19.0273ZM253.556 12.0273C253.556 11.7512 253.78 11.5273 254.056 11.5273H258.056C258.332 11.5273 258.556 11.7512 258.556 12.0273V20.0273C258.556 20.3035 258.332 20.5273 258.056 20.5273H254.056C253.78 20.5273 253.556 20.3035 253.556 20.0273V12.0273Z" stroke="currentColor"/>
<path d="M313.456 12.0273C313.456 11.7512 313.68 11.5273 313.956 11.5273H316.956C317.232 11.5273 317.456 11.7512 317.456 12.0273V15.0273C317.456 15.3035 317.232 15.5273 316.956 15.5273H313.956C313.68 15.5273 313.456 15.3035 313.456 15.0273V12.0273ZM320.456 12.0273C320.456 11.7512 320.68 11.5273 320.956 11.5273H323.956C324.232 11.5273 324.456 11.7512 324.456 12.0273V15.0273C324.456 15.3035 324.232 15.5273 323.956 15.5273H320.956C320.68 15.5273 320.456 15.3035 320.456 15.0273V12.0273ZM327.456 12.0273C327.456 11.7512 327.68 11.5273 327.956 11.5273H330.956C331.232 11.5273 331.456 11.7512 331.456 12.0273V15.0273C331.456 15.3035 331.232 15.5273 330.956 15.5273H327.956C327.68 15.5273 327.456 15.3035 327.456 15.0273V12.0273ZM313.456 18.0273C313.456 17.7512 313.68 17.5273 313.956 17.5273H316.956C317.232 17.5273 317.456 17.7512 317.456 18.0273V21.0273C317.456 21.3035 317.232 21.5273 316.956 21.5273H313.956C313.68 21.5273 313.456 21.3035 313.456 21.0273V18.0273ZM320.456 18.0273C320.456 17.7512 320.68 17.5273 320.956 17.5273H323.956C324.232 17.5273 324.456 17.7512 324.456 18.0273V21.0273C324.456 21.3035 324.232 21.5273 323.956 21.5273H320.956C320.68 21.5273 320.456 21.3035 320.456 21.0273V18.0273ZM327.456 18.0273C327.456 17.7512 327.68 17.5273 327.956 17.5273H330.956C331.232 17.5273 331.456 17.7512 331.456 18.0273V21.0273C331.456 21.3035 331.232 21.5273 330.956 21.5273H327.956C327.68 21.5273 327.456 21.3035 327.456 21.0273V18.0273Z" stroke="currentColor"/>
<path d="M677.356 20.4193V14.0288C677.356 13.643 677.774 13.4025 678.108 13.597L683.22 16.5792C683.539 16.7655 683.553 17.222 683.245 17.4271L678.133 20.8353C677.801 21.0568 677.356 20.8186 677.356 20.4193ZM685.356 20.4193V14.0288C685.356 13.643 685.774 13.4025 686.108 13.597L691.22 16.5792C691.539 16.7655 691.553 17.222 691.245 17.4271L686.133 20.8353C685.801 21.0568 685.356 20.8186 685.356 20.4193Z" stroke="currentColor"/>
<path d="M544.356 13.6354L544.356 20.0258C544.356 20.4117 543.937 20.6522 543.604 20.4577L538.491 17.4755C538.172 17.2892 538.158 16.8327 538.466 16.6276L543.578 13.2194C543.911 12.9978 544.356 13.236 544.356 13.6354ZM536.356 13.6354L536.356 20.0258C536.356 20.4117 535.937 20.6522 535.604 20.4577L530.491 17.4755C530.172 17.2892 530.158 16.8327 530.466 16.6276L535.578 13.2194C535.911 12.9978 536.356 13.236 536.356 13.6354Z" stroke="currentColor"/>
<path d="M604.356 20.4193V14.0288C604.356 13.643 604.774 13.4025 605.108 13.597L610.22 16.5792C610.539 16.7655 610.553 17.222 610.245 17.4271L605.133 20.8353C604.801 21.0568 604.356 20.8186 604.356 20.4193Z" stroke="currentColor"/>
<rect x="613.856" y="13.2878" width="1" height="8" rx="0.5" fill="currentColor"/>
<rect x="616.856" y="13.2878" width="1" height="8" rx="0.5" fill="currentColor"/>
<path d="M902.632 14.4746C903.107 14.7121 903.856 15.5905 903.856 17.0273H904.856C904.856 15.2642 903.938 14.0093 903.079 13.5801L902.632 14.4746ZM903.856 17.0273C903.856 18.4642 903.107 19.3426 902.632 19.5801L903.079 20.4746C903.938 20.0454 904.856 18.7905 904.856 17.0273H903.856ZM904.591 12.4513C905.359 12.9319 906.856 14.5618 906.856 17.0273H907.856C907.856 14.1595 906.129 12.2339 905.121 11.6033L904.591 12.4513ZM906.856 17.0273C906.856 19.4929 905.359 21.1228 904.591 21.6033L905.121 22.4513C906.129 21.8208 907.856 19.8952 907.856 17.0273H906.856ZM907.026 10.4036C907.847 11.1217 909.856 13.4843 909.856 17.0273H910.856C910.856 13.1038 908.642 10.4885 907.685 9.65106L907.026 10.4036ZM909.856 17.0273C909.856 20.5704 907.847 22.933 907.026 23.6511L907.685 24.4036C908.642 23.5662 910.856 20.9509 910.856 17.0273H909.856Z" fill="currentColor"/>
<mask id="path-191-inside-1" fill="white">
<path d="M893.856 14.6151H896.856L899.148 12.3222C899.778 11.6923 900.856 12.1384 900.856 13.0293V21.2009C900.856 22.0918 899.778 22.538 899.148 21.908L896.856 19.6151H893.856C893.303 19.6151 892.856 19.1674 892.856 18.6151V15.6151C892.856 15.0628 893.303 14.6151 893.856 14.6151Z"/>
</mask>
<path d="M896.856 14.6151V15.6151H897.27L897.563 15.3222L896.856 14.6151ZM896.856 19.6151L897.563 18.908L897.27 18.6151H896.856V19.6151ZM899.148 21.908L898.441 22.6151H898.441L899.148 21.908ZM899.148 12.3222L899.856 13.0293L899.148 12.3222ZM896.856 13.6151H893.856V15.6151H896.856V13.6151ZM891.856 15.6151V18.6151H893.856V15.6151H891.856ZM893.856 20.6151H896.856V18.6151H893.856V20.6151ZM896.148 20.3222L898.441 22.6151L899.856 21.2009L897.563 18.908L896.148 20.3222ZM901.856 21.2009V13.0293H899.856V21.2009H901.856ZM898.441 11.6151L896.148 13.908L897.563 15.3222L899.856 13.0293L898.441 11.6151ZM901.856 13.0293C901.856 11.2475 899.701 10.3552 898.441 11.6151L899.856 13.0293L899.856 13.0293H901.856ZM898.441 22.6151C899.701 23.8751 901.856 22.9827 901.856 21.2009H899.856L899.856 21.2009L898.441 22.6151ZM891.856 18.6151C891.856 19.7197 892.751 20.6151 893.856 20.6151V18.6151H891.856ZM893.856 13.6151C892.751 13.6151 891.856 14.5106 891.856 15.6151H893.856V13.6151Z" fill="currentColor" mask="url(#path-191-inside-1)"/>
<path d="M832.632 14.4746C833.107 14.7121 833.856 15.5905 833.856 17.0273H834.856C834.856 15.2642 833.938 14.0093 833.079 13.5801L832.632 14.4746ZM833.856 17.0273C833.856 18.4642 833.107 19.3426 832.632 19.5801L833.079 20.4746C833.938 20.0454 834.856 18.7905 834.856 17.0273H833.856Z" fill="currentColor"/>
<mask id="path-194-inside-2" fill="white">
<path d="M823.856 14.6151H826.856L829.148 12.3222C829.778 11.6923 830.856 12.1384 830.856 13.0293V21.2009C830.856 22.0918 829.778 22.538 829.148 21.908L826.856 19.6151H823.856C823.303 19.6151 822.856 19.1674 822.856 18.6151V15.6151C822.856 15.0628 823.303 14.6151 823.856 14.6151Z"/>
</mask>
<path d="M826.856 14.6151V15.6151H827.27L827.563 15.3222L826.856 14.6151ZM826.856 19.6151L827.563 18.908L827.27 18.6151H826.856V19.6151ZM829.148 21.908L828.441 22.6151H828.441L829.148 21.908ZM829.148 12.3222L829.856 13.0293L829.148 12.3222ZM826.856 13.6151H823.856V15.6151H826.856V13.6151ZM821.856 15.6151V18.6151H823.856V15.6151H821.856ZM823.856 20.6151H826.856V18.6151H823.856V20.6151ZM826.148 20.3222L828.441 22.6151L829.856 21.2009L827.563 18.908L826.148 20.3222ZM831.856 21.2009V13.0293H829.856V21.2009H831.856ZM828.441 11.6151L826.148 13.908L827.563 15.3222L829.856 13.0293L828.441 11.6151ZM831.856 13.0293C831.856 11.2475 829.701 10.3552 828.441 11.6151L829.856 13.0293L829.856 13.0293H831.856ZM828.441 22.6151C829.701 23.8751 831.856 22.9827 831.856 21.2009H829.856L829.856 21.2009L828.441 22.6151ZM821.856 18.6151C821.856 19.7197 822.751 20.6151 823.856 20.6151V18.6151H821.856ZM823.856 13.6151C822.751 13.6151 821.856 14.5106 821.856 15.6151H823.856V13.6151Z" fill="currentColor" mask="url(#path-194-inside-2)"/>
<mask id="path-196-inside-3" fill="white">
<path d="M752.856 14.6151H755.856L758.148 12.3222C758.778 11.6923 759.856 12.1384 759.856 13.0293V21.2009C759.856 22.0918 758.778 22.538 758.148 21.908L755.856 19.6151H752.856C752.303 19.6151 751.856 19.1674 751.856 18.6151V15.6151C751.856 15.0628 752.303 14.6151 752.856 14.6151Z"/>
</mask>
<path d="M755.856 14.6151V15.6151H756.27L756.563 15.3222L755.856 14.6151ZM755.856 19.6151L756.563 18.908L756.27 18.6151H755.856V19.6151ZM758.148 21.908L757.441 22.6151H757.441L758.148 21.908ZM758.148 12.3222L758.856 13.0293L758.148 12.3222ZM755.856 13.6151H752.856V15.6151H755.856V13.6151ZM750.856 15.6151V18.6151H752.856V15.6151H750.856ZM752.856 20.6151H755.856V18.6151H752.856V20.6151ZM755.148 20.3222L757.441 22.6151L758.856 21.2009L756.563 18.908L755.148 20.3222ZM760.856 21.2009V13.0293H758.856V21.2009H760.856ZM757.441 11.6151L755.148 13.908L756.563 15.3222L758.856 13.0293L757.441 11.6151ZM760.856 13.0293C760.856 11.2475 758.701 10.3552 757.441 11.6151L758.856 13.0293L758.856 13.0293H760.856ZM757.441 22.6151C758.701 23.8751 760.856 22.9827 760.856 21.2009H758.856L758.856 21.2009L757.441 22.6151ZM750.856 18.6151C750.856 19.7197 751.751 20.6151 752.856 20.6151V18.6151H750.856ZM752.856 13.6151C751.751 13.6151 750.856 14.5106 750.856 15.6151H752.856V13.6151Z" fill="currentColor" mask="url(#path-196-inside-3)"/>
<line x1="464.869" y1="21.1489" x2="469.125" y2="21.1489" stroke="currentColor" stroke-linecap="round" stroke-linejoin="round"/>
<line x1="467.497" y1="13.5272" x2="467.497" y2="15.3384" stroke="currentColor" stroke-linecap="round" stroke-linejoin="round"/>
<line x1="473.213" y1="15.9115" x2="471.932" y2="17.1922" stroke="currentColor" stroke-linecap="round" stroke-linejoin="round"/>
<line x1="461.084" y1="15.4155" x2="462.364" y2="16.6963" stroke="currentColor" stroke-linecap="round" stroke-linejoin="round"/>
<line x1="458.564" y1="21.1489" x2="460.375" y2="21.1489" stroke="currentColor" stroke-linecap="round" stroke-linejoin="round"/>
<line x1="474.136" y1="21.1489" x2="475.947" y2="21.1489" stroke="currentColor" stroke-linecap="round" stroke-linejoin="round"/>
<line x1="393.092" y1="21.6416" x2="396.538" y2="21.6416" stroke="currentColor" stroke-linecap="round" stroke-linejoin="round"/>
<line x1="395.315" y1="15.5273" x2="395.315" y2="16.5484" stroke="currentColor" stroke-linecap="round" stroke-linejoin="round"/>
<line x1="399.895" y1="17.7556" x2="399.173" y2="18.4776" stroke="currentColor" stroke-linecap="round" stroke-linejoin="round"/>
<line x1="390.1" y1="17.0485" x2="390.822" y2="17.7705" stroke="currentColor" stroke-linecap="round" stroke-linejoin="round"/>
<line x1="388.295" y1="21.6416" x2="389.316" y2="21.6416" stroke="currentColor" stroke-linecap="round" stroke-linejoin="round"/>
<line x1="400.395" y1="21.6416" x2="401.416" y2="21.6416" stroke="currentColor" stroke-linecap="round" stroke-linejoin="round"/>
<text fill="currentColor" xml:space="preserve" style="white-space: pre" font-family="SF Compact Display" font-size="14" letter-spacing="0em"><tspan x="21.8556" y="21.5039">esc</tspan></text>
<path fill-rule="evenodd" clip-rule="evenodd" d="M977.637 13.4287C978.637 14.2613 979.274 15.5155 979.274 16.9183C979.274 19.425 977.241 21.4571 974.735 21.4571C972.228 21.4571 970.196 19.425 970.196 16.9183C970.196 15.5155 970.832 14.2613 971.832 13.4288L971.193 12.6599C969.973 13.6759 969.196 15.2064 969.196 16.9183C969.196 19.9773 971.676 22.4571 974.735 22.4571C977.794 22.4571 980.274 19.9773 980.274 16.9183C980.274 15.2064 979.497 13.6759 978.277 12.6599L977.637 13.4287Z" fill="currentColor"/>
<rect x="974.056" y="10.7056" width="1" height="6.22274" fill="currentColor"/>
</svg>
